<svg width="202" height="143" viewBox="0 0 202 143" fill="none" xmlns="http://www.w3.org/2000/svg">
<path fill-rule="evenodd" clip-rule="evenodd" d="M5.13794 35.4895C16.6634 50.5661 37.1231 64.3947 60.2856 75.1451C94.8944 91.2046 135.515 100.402 161.048 96.8066C161.57 96.7265 161.771 96.2744 161.495 95.8003C161.214 95.3143 160.569 94.9896 160.036 95.0642C134.898 98.6006 94.8958 89.4895 60.816 73.6684C38.1776 63.1649 18.135 49.6999 6.87531 34.9599C6.51959 34.4914 5.84595 34.2367 5.36236 34.3818C4.89218 34.526 4.78222 35.0211 5.13794 35.4895Z" fill="black"/>
<path fill-rule="evenodd" clip-rule="evenodd" d="M194.659 100.542C179.469 101.934 165.417 101.777 153.183 108.506C152.777 108.738 152.788 109.268 153.23 109.7C153.658 110.132 154.344 110.3 154.746 110.074C168.21 102.672 183.94 103.784 200.926 101.741C201.841 101.628 201.68 101.004 201.626 100.853C201.551 100.63 201.348 100.274 200.77 100.031C200.657 99.9838 200.428 99.9136 200.105 99.85C199.488 99.7392 198.247 99.5985 197.68 99.4904C196.043 99.1678 194.411 98.8139 192.774 98.4913C188.094 97.5689 183.423 96.6089 178.73 95.379C161.174 90.7992 146.819 87.141 133.557 73.9981C133.119 73.5601 132.442 73.3981 132.026 73.6248C131.624 73.8505 131.645 74.3858 132.077 74.8119C145.793 88.4102 160.595 92.3143 178.751 97.0554C183.504 98.2934 188.24 99.2736 192.967 100.205C193.533 100.313 194.096 100.428 194.659 100.542Z" fill="black"/>
</svg>
