<svg width="203" height="144" viewBox="0 0 203 144" fill="none" xmlns="http://www.w3.org/2000/svg">
<path fill-rule="evenodd" clip-rule="evenodd" d="M5.3884 107.824C16.9139 92.7471 37.3736 78.9185 60.5361 68.1682C95.1449 52.1087 135.765 42.9116 161.298 46.5067C161.821 46.5867 162.021 47.0388 161.746 47.5129C161.465 47.999 160.819 48.3236 160.287 48.2491C135.148 44.7126 95.1463 53.8238 61.0665 69.6448C38.4281 80.1483 18.3855 93.6134 7.12577 108.353C6.77005 108.822 6.09641 109.077 5.61282 108.931C5.14264 108.787 5.03268 108.292 5.3884 107.824Z" fill="black"/>
<path fill-rule="evenodd" clip-rule="evenodd" d="M194.91 42.7708C179.72 41.3792 165.667 41.5361 153.433 34.8069C153.027 34.5747 153.039 34.0449 153.48 33.6134C153.908 33.1809 154.595 33.0134 154.997 33.2391C168.461 40.6411 184.191 39.5291 201.177 41.5717C202.092 41.6855 201.93 42.3095 201.877 42.46C201.802 42.683 201.599 43.0388 201.021 43.2818C200.907 43.3293 200.678 43.3995 200.356 43.4631C199.739 43.5739 198.497 43.7146 197.93 43.8227C196.293 44.1453 194.662 44.4992 193.025 44.8218C188.345 45.7442 183.674 46.7042 178.981 47.9342C161.424 52.514 147.069 56.1721 133.807 69.315C133.369 69.753 132.692 69.915 132.277 69.6883C131.875 69.4626 131.896 68.9273 132.328 68.5012C146.043 54.9029 160.845 50.9988 179.002 46.2578C183.754 45.0197 188.491 44.0395 193.217 43.1081C193.784 43 194.347 42.8854 194.91 42.7708Z" fill="black"/>
</svg>
