<svg width="103" height="87" viewBox="0 0 103 87" fill="none" xmlns="http://www.w3.org/2000/svg">
<path fill-rule="evenodd" clip-rule="evenodd" d="M74.7372 9.71858C79.7338 9.97509 83.7053 12.5065 87.677 15.349C100.702 24.6835 105.059 39.1666 96.1331 53.3986C82.2537 75.4692 49.9251 89.9138 24.8568 83.2476C19.305 81.7784 11.7888 80.4835 6.2797 73.3088C1.15499 66.6379 1.36852 58.7074 3.71734 51.3653C6.10887 43.8374 10.7211 36.9091 14.3938 32.4555C30.4512 13.0247 62.6088 -4.63535 91.6915 4.67487C92.2894 4.85426 92.8874 4.54576 93.0582 3.98587C93.229 3.42598 92.9298 2.82561 92.3746 2.64622C62.4378 -6.93542 29.2553 11.1038 12.7281 31.101C8.15859 36.6543 2.1801 45.9244 0.471859 55.5159C-0.681201 62.0714 0.130045 68.7726 4.57146 74.602C10.4222 82.2445 18.4083 83.7414 24.3017 85.306C50.1815 92.1913 83.6199 77.3244 97.9264 54.5299C107.535 39.233 102.923 23.6515 88.9156 13.6182C84.645 10.5341 80.2889 7.86889 74.8652 7.59107C74.2673 7.56082 73.755 8.01291 73.755 8.60007C73.7123 9.18723 74.182 9.68832 74.7372 9.71858Z" fill="#D9D9D9" fill-opacity="0.8"/>
</svg>
