<svg width="65" height="64" viewBox="0 0 65 64" fill="none" xmlns="http://www.w3.org/2000/svg">
<g opacity="0.5">
<path d="M4.4978 29.9011L40.1866 9.32031L4.4978 29.9011Z" fill="white"/>
<path fill-rule="evenodd" clip-rule="evenodd" d="M43.9925 7.126C45.1999 9.23515 44.4751 11.9273 42.3737 13.1392L6.68487 33.7199C4.58344 34.9318 1.9011 34.2043 0.693696 32.0952C-0.513705 29.986 0.211051 27.2938 2.31248 26.082L38.0013 5.50126C40.1027 4.28942 42.7851 5.01684 43.9925 7.126Z" fill="#FBD03D"/>
</g>
<g opacity="0.5">
<path d="M12.9846 43.4001L48.6734 22.8193L12.9846 43.4001Z" fill="white"/>
<path fill-rule="evenodd" clip-rule="evenodd" d="M52.4792 20.625C53.6866 22.7342 52.9619 25.4264 50.8604 26.6382L15.1716 47.219C13.0702 48.4308 10.3879 47.7034 9.18045 45.5942C7.97305 43.4851 8.69781 40.7929 10.7992 39.581L46.488 19.0003C48.5895 17.7884 51.2718 18.5159 52.4792 20.625Z" fill="#FBD03D"/>
</g>
<g opacity="0.5">
<path d="M57.8154 17.6476L60.5969 16.0225L57.8154 17.6476Z" fill="white"/>
<path fill-rule="evenodd" clip-rule="evenodd" d="M64.3903 13.806C65.6096 15.9083 64.9001 18.6045 62.8055 19.8283L60.0241 21.4534C57.9295 22.6772 55.2431 21.9651 54.0238 19.8628C52.8045 17.7606 53.514 15.0643 55.6086 13.8405L58.3901 12.2154C60.4846 10.9916 63.171 11.7038 64.3903 13.806Z" fill="#FBD03D"/>
</g>
<g opacity="0.5">
<path d="M25.5784 54.5059L52.6827 38.6162L25.5784 54.5059Z" fill="white"/>
<path fill-rule="evenodd" clip-rule="evenodd" d="M56.4729 36.3942C57.6952 38.4946 56.9896 41.1919 54.8969 42.4188L27.7926 58.3084C25.6999 59.5353 23.0124 58.8271 21.7901 56.7267C20.5677 54.6262 21.2733 51.9289 23.366 50.702L50.4703 34.8124C52.563 33.5855 55.2505 34.2937 56.4729 36.3942Z" fill="#FBD03D"/>
</g>
<path fill-rule="evenodd" clip-rule="evenodd" d="M59.2899 40.3728C58.9679 40.3385 58.6791 40.573 58.6455 40.8958C58.612 41.2187 58.8464 41.5088 59.1684 41.543C59.4905 41.5773 59.7793 41.3429 59.8128 41.02C59.8464 40.6972 59.612 40.4071 59.2899 40.3728ZM58.239 40.8526C58.2959 40.3046 58.7857 39.9071 59.3323 39.9652C59.8788 40.0234 60.2763 40.5153 60.2194 41.0633C60.1625 41.6112 59.6727 42.0088 59.1261 41.9506C58.5795 41.8925 58.1821 41.4005 58.239 40.8526Z" fill="#FBD03D"/>
<path fill-rule="evenodd" clip-rule="evenodd" d="M13.1401 56.6628C12.6105 56.6064 12.1355 56.992 12.0804 57.5229C12.0252 58.0537 12.4106 58.5308 12.9402 58.5871C13.4698 58.6434 13.9448 58.2579 13.9999 57.727C14.0551 57.1961 13.6697 56.7191 13.1401 56.6628ZM11.4118 57.4518C11.5054 56.5507 12.3109 55.8969 13.2097 55.9925C14.1085 56.0881 14.7621 56.897 14.6685 57.7981C14.5749 58.6991 13.7694 59.3529 12.8706 59.2573C11.9718 59.1618 11.3182 58.3528 11.4118 57.4518Z" fill="#FBD03D"/>
<path fill-rule="evenodd" clip-rule="evenodd" d="M31.3723 3.16471C30.8428 3.1084 30.3678 3.49392 30.3126 4.02481C30.2575 4.5557 30.6429 5.03272 31.1724 5.08904C31.702 5.14535 32.177 4.75982 32.2322 4.22893C32.2873 3.69804 31.9019 3.22102 31.3723 3.16471ZM29.644 3.95372C29.7376 3.05265 30.5431 2.39887 31.442 2.49445C32.3408 2.59002 32.9943 3.39896 32.9007 4.30003C32.8071 5.20109 32.0016 5.85488 31.1028 5.7593C30.204 5.66372 29.5504 4.85478 29.644 3.95372Z" fill="#FBD03D"/>
<path fill-rule="evenodd" clip-rule="evenodd" d="M1.28388 20.072C1.09161 20.072 0.935334 20.2289 0.935334 20.4218C0.935334 20.6148 1.09161 20.7717 1.28388 20.7717C1.47614 20.7717 1.63242 20.6148 1.63242 20.4218C1.63242 20.2289 1.47614 20.072 1.28388 20.072ZM0.444214 20.4218C0.444214 19.9566 0.820372 19.5791 1.28388 19.5791C1.74738 19.5791 2.12354 19.9566 2.12354 20.4218C2.12354 20.8871 1.74738 21.2646 1.28388 21.2646C0.820372 21.2646 0.444214 20.8871 0.444214 20.4218Z" fill="#FBD03D"/>
<path fill-rule="evenodd" clip-rule="evenodd" d="M47.4245 58.9568C47.2322 58.9568 47.076 59.1136 47.076 59.3066C47.076 59.4996 47.2322 59.6564 47.4245 59.6564C47.6168 59.6564 47.773 59.4996 47.773 59.3066C47.773 59.1136 47.6168 58.9568 47.4245 58.9568ZM46.5848 59.3066C46.5848 58.8414 46.961 58.4639 47.4245 58.4639C47.888 58.4639 48.2642 58.8414 48.2642 59.3066C48.2642 59.7718 47.888 60.1494 47.4245 60.1494C46.961 60.1494 46.5848 59.7718 46.5848 59.3066Z" fill="#FBD03D"/>
<path fill-rule="evenodd" clip-rule="evenodd" d="M55.0503 0.402511L54.314 2.6784L54.0411 2.58936L54.7774 0.313466L55.0503 0.402511Z" fill="#FBD03D"/>
<path fill-rule="evenodd" clip-rule="evenodd" d="M55.67 2.01948L53.4018 1.27927L53.4899 1.00684L55.7581 1.74705L55.67 2.01948Z" fill="#FBD03D"/>
<path fill-rule="evenodd" clip-rule="evenodd" d="M4.45712 39.4451L3.80047 41.7455L3.52466 41.666L4.18131 39.3657L4.45712 39.4451Z" fill="#FBD03D"/>
<path fill-rule="evenodd" clip-rule="evenodd" d="M5.1332 41.0392L2.84066 40.3788L2.91925 40.1035L5.2118 40.7638L5.1332 41.0392Z" fill="#FBD03D"/>
<path fill-rule="evenodd" clip-rule="evenodd" d="M53.9003 49.7624L53.3645 52.0942L53.0849 52.0293L53.6207 49.6976L53.9003 49.7624Z" fill="#FBD03D"/>
<path fill-rule="evenodd" clip-rule="evenodd" d="M54.6638 51.3181L52.3401 50.7791L52.4042 50.5L54.728 51.039L54.6638 51.3181Z" fill="#FBD03D"/>
<path d="M31.8401 12.8735C41.3026 12.8735 48.9854 20.5846 48.9854 30.0818C48.9854 39.5791 41.3026 47.2901 31.8401 47.2901C22.3776 47.2901 14.6948 39.5791 14.6948 30.0818C14.6948 20.5846 22.3776 12.8735 31.8401 12.8735Z" fill="#FFE99D"/>
<path d="M31.8302 14.5005C40.3977 14.5005 47.3539 21.4822 47.3539 30.0812C47.3539 38.6802 40.3977 45.662 31.8302 45.662C23.2626 45.662 16.3065 38.6802 16.3065 30.0812C16.3065 21.4822 23.2626 14.5005 31.8302 14.5005Z" fill="#FBD03D"/>
<path fill-rule="evenodd" clip-rule="evenodd" d="M39.4495 25.5183L29.0249 35.9812L24.2211 31.2693L25.4211 30.0369L29.011 33.5582L38.2355 24.2998L39.4495 25.5183Z" fill="white"/>
</svg>
