<svg width="304" height="216" viewBox="0 0 304 216" fill="none" xmlns="http://www.w3.org/2000/svg">
<path fill-rule="evenodd" clip-rule="evenodd" d="M7.31185 53.9352C24.6818 76.657 55.5165 97.498 90.4245 113.7C142.583 137.903 203.802 151.764 242.282 146.346C243.07 146.225 243.372 145.544 242.957 144.829C242.533 144.097 241.56 143.607 240.758 143.72C202.872 149.049 142.585 135.318 91.2239 111.474C57.1057 95.6446 26.8997 75.3515 9.93023 53.137C9.39413 52.431 8.37889 52.047 7.65007 52.2657C6.94147 52.483 6.77574 53.2292 7.31185 53.9352Z" fill="black"/>
<path fill-rule="evenodd" clip-rule="evenodd" d="M292.938 151.976C270.045 154.073 248.867 153.837 230.429 163.978C229.817 164.328 229.834 165.127 230.5 165.777C231.145 166.429 232.179 166.681 232.786 166.341C253.077 155.186 276.784 156.861 302.383 153.783C303.762 153.611 303.518 152.671 303.438 152.444C303.325 152.108 303.019 151.572 302.148 151.206C301.977 151.134 301.632 151.028 301.145 150.932C300.216 150.766 298.344 150.553 297.49 150.391C295.023 149.904 292.564 149.371 290.097 148.885C283.044 147.495 276.004 146.048 268.931 144.194C242.472 137.292 220.838 131.779 200.851 111.971C200.191 111.311 199.171 111.067 198.544 111.409C197.938 111.749 197.97 112.556 198.621 113.198C219.291 133.692 241.6 139.575 268.963 146.721C276.126 148.587 283.264 150.064 290.387 151.468C291.241 151.631 292.09 151.803 292.938 151.976Z" fill="black"/>
</svg>
