<svg width="52" height="67" viewBox="0 0 52 67" fill="none" xmlns="http://www.w3.org/2000/svg">
<path fill-rule="evenodd" clip-rule="evenodd" d="M16.5923 2.01895C22.3573 5.07275 27.0039 11.3445 30.1457 18.7673C34.8385 29.8584 36.1774 43.511 32.9689 52.7092C32.9005 52.8979 32.6922 52.998 32.5052 52.9326C32.3135 52.8659 32.2151 52.6606 32.2818 52.4689C35.4394 43.4129 34.0976 29.9717 29.4735 19.0505C26.4044 11.7955 21.8877 5.64624 16.2509 2.66359C16.0716 2.56954 16.0052 2.34986 16.0993 2.17058C16.192 1.99607 16.413 1.92491 16.5923 2.01895Z" fill="black"/>
<path fill-rule="evenodd" clip-rule="evenodd" d="M32.4021 64.2625C33.9882 58.8393 34.8316 53.9175 38.5315 49.1809C38.6581 49.0231 38.8862 48.9922 39.044 49.1188C39.2031 49.2407 39.2309 49.4705 39.1073 49.6265C35.037 54.839 34.4974 60.287 32.5138 66.3832C32.4052 66.712 32.1462 66.6963 32.0846 66.6874C31.9932 66.6757 31.8527 66.6279 31.7852 66.4411C31.772 66.4043 31.7565 66.3286 31.75 66.2194C31.7421 66.0103 31.7619 65.5837 31.7519 65.3919C31.7187 64.8385 31.6716 64.2892 31.6384 63.7358C31.5435 62.1538 31.4317 60.5774 31.2047 59.0111C30.3648 53.1501 29.7155 48.3523 24.8983 44.5617C24.7375 44.4368 24.7114 44.21 24.8363 44.0492C24.9599 43.8932 25.1897 43.8653 25.3458 43.9889C30.3302 47.9086 31.0568 52.8473 31.9274 58.9083C32.1541 60.4949 32.2703 62.0929 32.3662 63.6906C32.3762 63.8824 32.3892 64.0725 32.4021 64.2625Z" fill="black"/>
</svg>
