<svg width="62" height="62" viewBox="0 0 62 62" fill="none" xmlns="http://www.w3.org/2000/svg">
<path fill-rule="evenodd" clip-rule="evenodd" d="M2.7671 13.5986C4.22475 19.9575 9.08012 26.0691 15.4368 31.0249C24.9355 38.4285 37.7763 43.2552 47.4915 42.5368C47.6915 42.5195 47.8421 42.3442 47.8273 42.1467C47.8125 41.9442 47.6397 41.7961 47.4372 41.8109C37.8726 42.517 25.2367 37.7421 15.8845 30.4489C9.67093 25.6066 4.90023 19.6524 3.47814 13.4356C3.4337 13.2381 3.23868 13.1171 3.04116 13.1616C2.84859 13.206 2.72266 13.4011 2.7671 13.5986Z" fill="black"/>
<path fill-rule="evenodd" clip-rule="evenodd" d="M58.7979 44.9795C53.149 45.1079 48.1766 44.6487 42.6437 46.9966C42.4586 47.0781 42.3697 47.2904 42.4511 47.4756C42.5277 47.6607 42.7425 47.7471 42.9252 47.6681C49.0135 45.0856 54.4155 45.9744 60.8174 45.6362C61.1631 45.6164 61.2149 45.3622 61.2223 45.3004C61.2347 45.2091 61.2248 45.061 61.0619 44.9474C61.0298 44.9252 60.9606 44.8906 60.8569 44.856C60.6569 44.7943 60.2397 44.703 60.057 44.6437C59.5311 44.4684 59.0127 44.2808 58.4868 44.1055C56.9832 43.6043 55.4895 43.0883 54.0353 42.4637C48.5914 40.1355 44.1251 38.2665 41.7105 32.6324C41.6315 32.4448 41.4191 32.3608 41.2315 32.4398C41.0488 32.5188 40.9624 32.7336 41.0414 32.9163C43.5375 38.7455 48.1198 40.7255 53.7489 43.1352C55.2229 43.7648 56.7363 44.2906 58.2547 44.7968C58.4374 44.856 58.6176 44.9178 58.7979 44.9795Z" fill="black"/>
</svg>
