<svg width="305" height="216" viewBox="0 0 305 216" fill="none" xmlns="http://www.w3.org/2000/svg">
<path fill-rule="evenodd" clip-rule="evenodd" d="M7.67513 162.141C25.0451 139.419 55.8798 118.578 90.7878 102.376C142.946 78.1732 204.165 64.3123 242.645 69.7304C243.433 69.851 243.735 70.5324 243.32 71.247C242.897 71.9795 241.924 72.4687 241.121 72.3564C203.236 67.0266 142.949 80.758 91.5871 104.602C57.469 120.432 27.2629 140.725 10.2935 162.939C9.75741 163.645 8.74217 164.029 8.01336 163.81C7.30475 163.593 7.13902 162.847 7.67513 162.141Z" fill="black"/>
<path fill-rule="evenodd" clip-rule="evenodd" d="M293.301 64.1002C270.408 62.003 249.231 62.2393 230.793 52.0978C230.181 51.7479 230.198 50.9495 230.863 50.2992C231.509 49.6473 232.543 49.3949 233.149 49.7351C253.44 60.8905 277.147 59.2147 302.746 62.293C304.126 62.4646 303.882 63.405 303.801 63.6318C303.688 63.9678 303.382 64.504 302.512 64.8703C302.34 64.9419 301.995 65.0478 301.509 65.1437C300.579 65.3106 298.708 65.5226 297.854 65.6856C295.387 66.1718 292.928 66.7051 290.461 67.1913C283.407 68.5814 276.368 70.0282 269.295 71.8819C242.835 78.7841 221.201 84.2972 201.214 104.105C200.554 104.765 199.534 105.009 198.908 104.667C198.302 104.327 198.333 103.521 198.984 102.878C219.655 82.3845 241.963 76.5007 269.327 69.3554C276.489 67.4895 283.627 66.0123 290.75 64.6085C291.604 64.4456 292.453 64.2729 293.301 64.1002Z" fill="black"/>
</svg>
