<svg width="68" height="39" viewBox="0 0 68 39" fill="none" xmlns="http://www.w3.org/2000/svg">
<path fill-rule="evenodd" clip-rule="evenodd" d="M62.6238 3.65966C56.3879 1.74255 48.6675 2.89164 41.1972 5.9188C30.0362 10.4431 19.4357 19.1502 15.2003 27.9231C15.1153 28.1049 15.1918 28.323 15.3703 28.4089C15.553 28.4973 15.7677 28.4217 15.8561 28.239C20.0269 19.6027 30.48 11.0471 41.4722 6.59444C48.7726 3.63451 56.3144 2.48011 62.4094 4.3569C62.6026 4.41717 62.8049 4.30877 62.8652 4.1155C62.923 3.9265 62.817 3.71993 62.6238 3.65966Z" fill="black"/>
<path fill-rule="evenodd" clip-rule="evenodd" d="M7.43168 36.4932C10.1449 31.537 13.0288 27.4603 13.7619 21.4948C13.7839 21.2937 13.6445 21.1105 13.4434 21.0885C13.2448 21.0622 13.0625 21.205 13.0396 21.4028C12.2319 27.9667 8.7612 32.2005 5.85317 37.9139C5.69745 38.2231 5.89175 38.3951 5.9415 38.4324C6.01444 38.4888 6.14764 38.5543 6.32747 38.47C6.36276 38.4533 6.42728 38.4107 6.50906 38.3381C6.66251 38.1958 6.95022 37.8802 7.09289 37.7516C7.50764 37.3838 7.92938 37.0286 8.34413 36.6608C9.52996 35.6093 10.7237 34.5737 11.9917 33.6266C16.73 30.0761 20.5817 27.1427 26.6682 27.8687C26.8702 27.8941 27.0491 27.7521 27.0745 27.5501C27.0975 27.3524 26.9546 27.1702 26.7569 27.1472C20.4607 26.3943 16.4548 29.3727 11.5534 33.0429C10.2712 34.0045 9.05902 35.0523 7.86151 36.1142C7.71885 36.2428 7.57524 36.368 7.43168 36.4932Z" fill="black"/>
</svg>
