<svg width="175" height="37" viewBox="0 0 175 37" fill="none" xmlns="http://www.w3.org/2000/svg">
<path fill-rule="evenodd" clip-rule="evenodd" d="M64.9489 13.6013C63.89 13.8534 62.8374 14.1219 61.7912 14.4079C61.4104 14.5119 61.1814 14.957 61.2786 15.4015L61.2837 15.419C55.6028 15.4677 49.9237 15.5794 44.248 15.7559C36.049 16.0112 27.8002 16.4922 19.6346 17.2934C11.5652 18.0851 9.33563 18.2869 2.40019 19.6869C2.20185 19.7269 1.81839 19.7198 1.61278 19.7845C1.41724 19.8459 1.27792 19.9553 1.18883 20.063C1.07469 20.1994 1.00983 20.3572 0.983412 20.5306C0.955518 20.7194 0.966684 20.9507 1.10888 21.2106C1.50999 21.94 2.14876 22.1464 2.92392 22.0025C3.59088 21.8785 4.39414 21.4214 5.02664 21.3755C15.5559 20.6111 26.0772 19.7502 36.6077 19.0036C52.7289 17.8608 68.8081 17.4196 84.8923 17.2303C101.808 17.5973 118.72 18.5031 135.608 19.9061C146.607 20.8192 157.586 22.1136 168.573 23.2618C168.566 23.3179 168.565 23.3765 168.568 23.4363C168.596 23.8922 168.938 24.2433 169.33 24.22C169.727 24.1964 173.269 24.1198 173.92 23.9401C174.293 23.8371 174.437 23.5702 174.484 23.4558C174.613 23.1419 174.617 22.7994 174.32 22.4691C174.262 22.4057 174.152 22.3008 173.953 22.2324C173.782 22.1724 173.36 22.0942 172.594 22.0179C160.289 20.7798 147.996 19.2797 135.679 18.2557C130.181 17.7998 124.679 17.3952 119.174 17.0463C126.641 17.0191 134.111 16.9766 141.592 16.8748C141.914 16.8715 142.07 16.8125 142.099 16.7984C142.508 16.5969 142.532 16.2198 142.522 16.0058C142.52 15.9295 142.458 15.2988 141.854 15.2035C141.501 15.1474 138.951 15.0172 137.97 14.9455C133.255 14.5963 133.366 14.644 128.543 14.3339C117.937 13.6537 107.348 13.1609 96.7323 12.7392C92.4997 12.5712 88.2675 12.4266 84.0344 12.3078C96.22 11.2399 108.67 11.4314 120.533 11.4182C126.653 11.4116 132.774 11.4493 138.896 11.611C141.637 11.6835 144.379 11.8095 147.12 11.8979C147.972 11.9253 148.822 11.9758 149.673 12.0091C149.773 12.0129 151.093 12.0406 151.31 12.0376C151.877 12.0297 152.001 11.4443 152.006 11.4208C152.029 11.3106 152.115 10.522 151.41 10.3921C141.216 8.51506 130.551 8.80576 120.269 8.40163C102.274 7.69423 84.236 7.59628 66.2523 8.0405C58.298 8.23689 50.3723 8.74561 42.4322 9.25115C38.4666 9.50367 34.4907 9.77389 30.5671 10.4561C30.1735 10.5246 29.2805 10.5895 28.8479 10.6712C28.6277 10.7129 28.4713 10.7809 28.3998 10.8276C28.0867 11.0307 28.0269 11.334 28.0239 11.5471C28.0223 11.7067 28.057 12.2695 28.708 12.4487C38.0106 15.0131 48.2917 13.5477 57.713 13.5622C60.1248 13.5659 62.5359 13.5791 64.9489 13.6013ZM72.8059 13.7056C70.0159 14.1702 67.2545 14.7281 64.5332 15.3984C71.3155 15.3691 78.099 15.4294 84.8861 15.5768C96.0792 15.4451 107.273 15.4349 118.481 15.3949C111.23 15.0024 103.978 14.6805 96.7139 14.3921C88.7465 14.0756 80.776 13.8427 72.8059 13.7056ZM111.555 9.76C96.4729 9.33047 81.3741 9.3217 66.3139 9.69376C58.3738 9.8899 50.4648 10.3979 42.5401 10.9025C39.4218 11.101 36.2951 11.3093 33.1948 11.7259C41.2276 12.9657 49.7636 11.8962 57.6849 11.9085C62.6877 11.9163 67.6933 11.9644 72.6977 12.0502C85.3996 9.95169 98.6882 9.76451 111.555 9.76Z" fill="black"/>
</svg>
