<svg width="253" height="80" viewBox="0 0 253 80" fill="none" xmlns="http://www.w3.org/2000/svg">
<path d="M2 39.8751H204.639" stroke="black" stroke-width="2.2" stroke-linecap="round"/>
<path fill-rule="evenodd" clip-rule="evenodd" d="M242.739 43.7685C222.23 46.4099 203.904 46.9956 184.878 56.3373C184.243 56.6587 184.02 57.3395 184.405 57.8698C184.773 58.4022 185.596 58.5792 186.224 58.2663C207.161 47.9903 227.256 48.5392 250.406 44.9599C251.655 44.7621 251.723 43.9685 251.72 43.7779C251.722 43.4953 251.615 43.049 250.968 42.7687C250.84 42.714 250.572 42.6365 250.178 42.5728C249.42 42.4649 247.857 42.3535 247.163 42.2462C245.165 41.9229 243.187 41.5591 241.189 41.2359C235.474 40.3117 229.789 39.3385 224.195 38.0194C203.26 33.1121 186.105 29.211 174.622 13.048C174.245 12.5092 173.432 12.3386 172.786 12.6535C172.158 12.9665 171.946 13.6538 172.321 14.1777C184.193 30.9011 201.825 35.0935 223.473 40.1747C229.141 41.5009 234.903 42.4962 240.674 43.4296C241.367 43.5369 242.053 43.6527 242.739 43.7685Z" fill="black"/>
</svg>
