<svg width="242" height="153" viewBox="0 0 242 153" fill="none" xmlns="http://www.w3.org/2000/svg">
<path fill-rule="evenodd" clip-rule="evenodd" d="M5.05852 63.9315C19.3821 82.1492 44.2454 94.4207 72.1797 100.703C113.918 110.086 162.486 106.123 192.606 89.0853C193.223 88.7266 193.441 87.9352 193.094 87.3232C192.739 86.6953 191.959 86.4814 191.331 86.836C161.676 103.605 113.845 107.424 72.7443 98.1744C45.4423 92.0394 21.0894 80.1448 7.09563 62.3301C6.65341 61.7629 5.84351 61.67 5.27639 62.1122C4.72514 62.5469 4.61631 63.3644 5.05852 63.9315Z" fill="black"/>
<path fill-rule="evenodd" clip-rule="evenodd" d="M232.628 79.7953C214.676 88.7721 198.007 94.8358 183.793 110.767C183.321 111.309 183.358 112.126 183.9 112.597C184.427 113.076 185.248 113.028 185.715 112.497C201.358 94.9706 220.059 89.6357 240.112 78.843C241.192 78.2555 240.973 77.36 240.903 77.1505C240.804 76.8383 240.548 76.3775 239.853 76.2597C239.716 76.237 239.441 76.2308 239.056 76.277C238.32 76.3819 236.841 76.721 236.164 76.8077C234.209 77.0418 232.259 77.2251 230.304 77.4593C224.714 78.1288 219.133 78.7359 213.515 78.9341C192.497 79.7087 175.315 80.4761 159.017 66.0379C158.478 65.5549 157.669 65.6072 157.186 66.1455C156.719 66.6763 156.767 67.4973 157.298 67.9644C174.154 82.9057 191.876 82.3191 213.613 81.5255C219.302 81.3132 224.961 80.708 230.606 80.0318C231.283 79.9452 231.956 79.8703 232.628 79.7953Z" fill="black"/>
</svg>
