<svg width="95" height="56" viewBox="0 0 95 56" fill="none" xmlns="http://www.w3.org/2000/svg">
<path d="M58.2969 34.8379L59.1055 30.9355H62.1816C65.1172 30.9355 67.0684 29.705 67.0684 27.6836C67.0684 25.8027 65.5215 24.5371 63.043 24.5371C60.793 24.5371 59.0703 25.7324 58.5957 27.5781H53.709C54.6055 23.0429 58.3672 20.2129 63.5176 20.2129C68.668 20.2129 72.1836 23.2011 72.1836 27.1035C72.1836 30.1797 69.6699 32.5703 66.2773 33.0273L66.2598 33.1328C69.0195 33.8008 70.6191 35.8222 70.6191 38.4941C70.6191 43.1699 66.3477 46.4218 60.6875 46.4218C54.6758 46.4218 51.002 43.2226 51.1074 38.7929C51.1074 38.582 51.125 38.3711 51.1777 38.1074H56.1172C56.0293 40.375 57.6992 42.0625 60.7402 42.0625C63.4473 42.0625 65.416 40.5508 65.416 38.2129C65.416 36.1386 63.8691 34.8379 61.2324 34.8379H58.2969Z" fill="#0C0A09"/>
<path fill-rule="evenodd" clip-rule="evenodd" d="M26.2627 53.2751C17.8579 53.4778 9.26886 53.0724 1.23256 55.9465C0.753546 56.116 0.226652 55.8692 0.0534725 55.3901C-0.116024 54.9111 0.130854 54.3842 0.609863 54.211C8.83409 51.2706 17.6184 51.6391 26.2185 51.4327C26.7269 51.418 27.1507 51.8233 27.1617 52.3318C27.1765 52.8403 26.7712 53.2604 26.2627 53.2751Z" fill="#0C0A09"/>
<path fill-rule="evenodd" clip-rule="evenodd" d="M27.0173 41.0714C24.3975 38.6609 21.5381 36.855 18.0819 35.96C17.5881 35.8325 17.2934 35.3295 17.4187 34.8372C17.5476 34.3449 18.0524 34.0491 18.5425 34.1766C22.3009 35.1493 25.4144 37.0956 28.2627 39.7151C28.6385 40.0593 28.6643 40.6426 28.318 41.0169C27.9753 41.3909 27.3894 41.4156 27.0173 41.0714Z" fill="#0C0A09"/>
<path fill-rule="evenodd" clip-rule="evenodd" d="M34.3087 14.7563C33.1075 10.6386 30.7419 7.41741 27.1162 5.09123C26.6888 4.81672 26.5635 4.24632 26.8398 3.81853C27.1125 3.39073 27.6836 3.26617 28.1111 3.54069C32.1237 6.11632 34.7472 9.68094 36.0774 14.2401C36.2211 14.7279 35.9373 15.2401 35.4509 15.3824C34.9609 15.525 34.4487 15.2442 34.3087 14.7563Z" fill="#0C0A09"/>
<path fill-rule="evenodd" clip-rule="evenodd" d="M75.7051 9.16635C76.4199 10.0076 77.0611 10.914 77.6064 11.8791C77.8496 12.3087 78.277 13.2218 78.3433 14.0048C78.417 14.839 78.1333 15.5428 77.4038 15.9135C76.4347 16.405 75.6609 16.3538 75.0639 16.0565C74.4891 15.7709 74.0396 15.2097 73.7559 14.4573C73.2143 13.0191 73.2953 10.8212 73.579 9.5669C72.8163 8.77983 71.9799 8.06608 71.0845 7.43157C64.4152 2.70588 54.6323 4.44841 47.1045 11.5143C44.47 13.9882 43.2024 19.1837 42.5429 24.7893C41.5148 33.5174 42.1007 43.2657 42.1818 46.1218C42.2002 46.827 42.1339 47.2456 42.097 47.3293C41.9238 47.7405 41.618 47.8473 41.4043 47.8879C41.0948 47.9431 40.8479 47.8842 40.649 47.781C40.38 47.6395 40.1589 47.3904 40.0557 47.0061C40.0004 46.7939 39.9857 46.4984 39.9931 46.1833C40.0005 45.9648 40.0447 45.726 40.0005 45.5694C39.7131 44.5664 39.3667 43.587 39.0277 42.6006C37.8965 39.2847 36.4336 36.1774 34.8087 33.0737C29.6464 23.2119 24.6537 12.7918 16.19 5.27821C15.8105 4.94105 15.7736 4.35813 16.1126 3.97786C16.4479 3.5976 17.0301 3.56295 17.4133 3.90048C26.0465 11.5625 31.1756 22.1621 36.441 32.2192C37.8228 34.8593 39.0903 37.5032 40.1442 40.2686C40.0373 35.3767 40.0778 28.6052 40.9732 22.6138C41.7691 17.2853 43.2835 12.5762 45.8444 10.1712C54.0907 2.43063 64.8463 0.751504 72.1494 5.92857C72.9305 6.48276 73.6748 7.09222 74.3675 7.75327C78.1885 0.853581 86.3686 -1.91184 93.5979 1.38822C94.0622 1.59936 94.2649 2.14618 94.0548 2.60861C93.8411 3.07105 93.2958 3.27519 92.8315 3.06405C86.317 0.0904653 78.9292 2.74421 75.7051 9.16635ZM75.1708 11.4763C75.4693 11.8978 75.7456 12.3349 76.0036 12.7866C76.1399 13.0291 76.3757 13.4952 76.4752 13.9514C76.4973 14.0582 76.501 14.2255 76.501 14.3029C76.2467 14.4282 76.0478 14.4886 75.8857 14.4072C75.683 14.3069 75.5798 14.0711 75.4803 13.8077C75.2298 13.1466 75.1487 12.2704 75.1708 11.4763Z" fill="#0C0A09"/>
</svg>
