<svg width="95" height="56" viewBox="0 0 95 56" fill="none" xmlns="http://www.w3.org/2000/svg">
<path d="M56.2227 46.0001L60.5293 25.9083H60.4238L53.0234 30.338L54.0957 25.1525L61.6191 20.6349H66.9277L61.5312 46.0001H56.2227Z" fill="#0C0A09"/>
<path fill-rule="evenodd" clip-rule="evenodd" d="M26.2627 53.2753C17.8579 53.4779 9.26886 53.0726 1.23256 55.9467C0.753546 56.1162 0.226652 55.8693 0.0534725 55.3903C-0.116024 54.9113 0.130854 54.3844 0.609863 54.2112C8.83409 51.2708 17.6184 51.6392 26.2185 51.4329C26.7269 51.4181 27.1507 51.8235 27.1617 52.332C27.1765 52.8405 26.7712 53.2605 26.2627 53.2753Z" fill="#0C0A09"/>
<path fill-rule="evenodd" clip-rule="evenodd" d="M27.0173 41.0716C24.3975 38.661 21.5381 36.8552 18.0819 35.9601C17.5881 35.8326 17.2934 35.3297 17.4187 34.8374C17.5476 34.3451 18.0524 34.0492 18.5425 34.1767C22.3009 35.1495 25.4144 37.0958 28.2627 39.7153C28.6385 40.0594 28.6643 40.6427 28.318 41.0171C27.9753 41.3911 27.3894 41.4158 27.0173 41.0716Z" fill="#0C0A09"/>
<path fill-rule="evenodd" clip-rule="evenodd" d="M34.3087 14.7564C33.1075 10.6387 30.7419 7.41753 27.1162 5.09135C26.6888 4.81684 26.5635 4.24645 26.8398 3.81865C27.1125 3.39085 27.6836 3.26629 28.1111 3.54081C32.1237 6.11644 34.7472 9.68106 36.0774 14.2402C36.2211 14.7281 35.9373 15.2402 35.4509 15.3825C34.9609 15.5251 34.4487 15.2443 34.3087 14.7564Z" fill="#0C0A09"/>
<path fill-rule="evenodd" clip-rule="evenodd" d="M75.7051 9.1665C76.4199 10.0077 77.0611 10.9142 77.6064 11.8792C77.8496 12.3089 78.277 13.2219 78.3433 14.0049C78.417 14.8392 78.1333 15.543 77.4038 15.9137C76.4347 16.4052 75.6609 16.354 75.0639 16.0566C74.4891 15.7711 74.0396 15.2099 73.7559 14.4574C73.2143 13.0193 73.2953 10.8213 73.579 9.56705C72.8163 8.77999 71.9799 8.06624 71.0845 7.43172C64.4152 2.70604 54.6323 4.44856 47.1045 11.5144C44.47 13.9884 43.2024 19.1838 42.5429 24.7894C41.5148 33.5175 42.1007 43.2659 42.1818 46.1219C42.2002 46.8272 42.1339 47.2458 42.097 47.3294C41.9238 47.7406 41.618 47.8475 41.4043 47.888C41.0948 47.9433 40.8479 47.8843 40.649 47.7812C40.38 47.6397 40.1589 47.3906 40.0557 47.0063C40.0004 46.794 39.9857 46.4985 39.9931 46.1835C40.0005 45.965 40.0447 45.7262 40.0005 45.5696C39.7131 44.5666 39.3667 43.5872 39.0277 42.6008C37.8965 39.2849 36.4336 36.1775 34.8087 33.0739C29.6464 23.212 24.6537 12.7919 16.19 5.27836C15.8105 4.94121 15.7736 4.35828 16.1126 3.97802C16.4479 3.59775 17.0301 3.56311 17.4133 3.90063C26.0465 11.5627 31.1756 22.1622 36.441 32.2194C37.8228 34.8595 39.0903 37.5033 40.1442 40.2687C40.0373 35.3768 40.0778 28.6054 40.9732 22.614C41.7691 17.2855 43.2835 12.5764 45.8444 10.1713C54.0907 2.43079 64.8463 0.751656 72.1494 5.92872C72.9305 6.48291 73.6748 7.09237 74.3675 7.75342C78.1885 0.853733 86.3686 -1.91169 93.5979 1.38837C94.0622 1.59951 94.2649 2.14633 94.0548 2.60876C93.8411 3.0712 93.2958 3.27534 92.8315 3.06421C86.317 0.0906179 78.9292 2.74436 75.7051 9.1665ZM75.1708 11.4765C75.4693 11.898 75.7456 12.335 76.0036 12.7868C76.1399 13.0292 76.3757 13.4954 76.4752 13.9515C76.4973 14.0584 76.501 14.2257 76.501 14.303C76.2467 14.4283 76.0478 14.4888 75.8857 14.4073C75.683 14.3071 75.5798 14.0713 75.4803 13.8078C75.2298 13.1468 75.1487 12.2705 75.1708 11.4765Z" fill="#0C0A09"/>
</svg>
