<svg width="239" height="125" viewBox="0 0 239 125" fill="none" xmlns="http://www.w3.org/2000/svg">
<path fill-rule="evenodd" clip-rule="evenodd" d="M235.782 58.1578C218.966 42.2123 192.585 33.6798 164.034 31.5185C121.376 28.2943 73.8974 39.2652 46.5695 60.4943C46.0119 60.9387 45.911 61.7534 46.3432 62.3085C46.7851 62.8783 47.5877 62.9767 48.1575 62.5348C75.0641 41.6383 121.835 30.9171 163.843 34.1027C191.746 36.2096 217.568 44.4433 233.999 60.038C234.519 60.535 235.334 60.5094 235.831 59.9895C236.313 59.4794 236.302 58.6548 235.782 58.1578Z" fill="black"/>
<path fill-rule="evenodd" clip-rule="evenodd" d="M8.31997 75.4954C24.7788 64.0078 40.3917 55.5887 52.1428 37.7631C52.5303 37.1579 52.3758 36.3551 51.7707 35.9675C51.1802 35.5702 50.3748 35.7369 49.9897 36.3299C37.0565 55.9417 19.3279 63.9347 1.05412 77.5239C0.0704166 78.262 0.417071 79.1162 0.516528 79.3134C0.659639 79.6079 0.980039 80.0267 1.68541 80.0423C1.82405 80.0449 2.09667 80.0111 2.4714 79.9095C3.18439 79.6988 4.59827 79.1487 5.25527 78.9647C7.15568 78.4492 9.05848 77.9848 10.9589 77.4693C16.3925 75.9954 21.8259 74.5847 27.3562 73.5731C48.0393 69.7557 64.9271 66.5025 83.1489 78.4219C83.7516 78.8216 84.545 78.6524 84.9447 78.0497C85.3298 77.4567 85.163 76.6514 84.57 76.2662C65.7236 63.93 48.2741 67.0829 26.883 71.0234C21.2846 72.0592 15.7733 73.4795 10.2862 74.9679C9.62919 75.1519 8.97452 75.3236 8.31997 75.4954Z" fill="black"/>
</svg>
