<svg width="191" height="10" viewBox="0 0 191 10" fill="none" xmlns="http://www.w3.org/2000/svg">
<path fill-rule="evenodd" clip-rule="evenodd" d="M34.1537 3.63098C32.0791 4.01924 30.1321 4.58133 28.3763 5.36943C28.185 5.45635 28.127 5.57801 28.1097 5.63017C28.0807 5.72288 28.0923 5.80985 28.1387 5.89098C28.1676 5.94313 28.214 6.00688 28.3125 6.04745C28.3821 6.07642 28.5617 6.09958 28.7993 6.09378C29.2049 6.08799 29.8308 6.04165 30.1321 6.04165C31.1636 6.05324 32.195 6.04739 33.2265 6.06478C36.5122 6.12273 37.0858 6.16908 41.3102 6.13431C46.2416 6.09375 51.1846 6.02421 56.1218 5.91991C40.4295 6.78913 24.7603 7.80323 9.17226 8.74778C8.99842 8.75937 8.86513 8.91008 8.87672 9.08393C8.88251 9.26357 9.03895 9.39686 9.21279 9.38527C45.5868 7.18324 82.3607 4.58712 119.013 4.41907C120.821 4.45963 122.623 4.50017 124.419 4.54074C135.273 4.79571 146.133 5.10286 156.975 5.57803C160.504 5.73449 164.033 5.90832 167.568 6.07058C168.611 6.11694 169.66 6.16329 170.708 6.20965C171.554 6.24442 173.733 6.37193 174.04 6.37772C174.319 6.38352 174.388 6.13437 174.394 6.12278C174.411 6.04166 174.4 5.9489 174.33 5.86197C174.313 5.83879 174.266 5.77508 174.162 5.74611C174.145 5.74611 174.064 5.73449 173.896 5.7171C165.18 5.00434 156.442 4.51178 147.686 4.19886C148.862 4.21045 150.038 4.21628 151.215 4.22787C160.283 4.2974 169.376 4.54658 178.439 4.22787C180.502 4.15833 182.57 4.07717 184.628 3.97866C186.012 3.91492 189.576 3.99605 190.08 3.84539C190.312 3.78165 190.364 3.61937 190.37 3.53825C190.376 3.44553 190.359 3.34122 190.254 3.24851C190.208 3.20215 190.063 3.12685 189.791 3.0689C180.896 1.13923 170.488 1.6839 161.431 1.14498C136.832 -0.332695 112.32 0.652467 87.7267 1.55066C66.5003 2.32717 45.2739 2.36772 24.0591 3.42238C16.294 3.80484 8.28566 3.36446 0.630717 4.82475C0.456873 4.85952 0.346735 5.02171 0.375709 5.19556C0.410478 5.3694 0.578541 5.48533 0.752385 5.45056C8.37256 3.99607 16.352 4.44225 24.0881 4.05979C27.4433 3.89174 30.7985 3.75267 34.1537 3.63098ZM99.7799 4.05979C86.7821 3.85698 73.7844 3.75264 60.7751 3.81639C51.8511 3.85695 38.8475 2.15913 29.9814 5.40423C30.0452 5.40423 30.0973 5.40423 30.1436 5.40423C31.1751 5.41582 32.2066 5.40418 33.2381 5.42736C36.518 5.48531 37.0916 5.53167 41.3044 5.4969C52.077 5.40418 62.8786 5.17243 73.6453 4.81315C82.3665 4.52341 91.0761 4.26261 99.7799 4.05979ZM187.705 3.31224C179.296 1.84036 169.764 2.28082 161.39 1.78247C136.814 0.304792 112.32 1.28988 87.7499 2.18808C76.7687 2.59372 65.7934 2.79652 54.8238 3.0457C56.9273 3.12683 58.9381 3.18477 60.7751 3.17897C79.3706 3.08625 97.9603 3.33547 116.556 3.72952C128.105 3.55568 139.654 3.49193 151.22 3.58465C160.283 3.65998 169.358 3.90337 178.421 3.59045C180.478 3.52091 182.541 3.43975 184.598 3.34124C185.3 3.31227 186.569 3.31803 187.705 3.31224Z" fill="#D9D9D9"/>
</svg>
