<svg width="160" height="44" viewBox="0 0 160 44" fill="none" xmlns="http://www.w3.org/2000/svg">
<path d="M159.191 21.9791C159.191 11.8693 159.191 6.81449 156.202 3.59886C155.939 3.31614 155.662 3.04723 155.371 2.79322C152.065 -0.0959218 147.013 0.059198 136.908 0.369437L10.8276 4.24032C5.7097 4.39745 3.15077 4.47601 1.57491 6.101C-0.000961304 7.72598 -0.000961304 10.2861 -0.000961304 15.4064V27.9988C-0.000961304 33.0985 -0.000961304 35.6484 1.56639 37.2717C3.13374 38.8951 5.68205 38.9845 10.7787 39.1633L136.813 43.5856C146.957 43.9415 152.029 44.1194 155.351 41.2293C155.643 40.9753 155.922 40.7063 156.186 40.4233C159.191 37.2042 159.191 32.1291 159.191 21.9791Z" fill="#627EEA"/>
</svg>
