<svg width="160" height="44" viewBox="0 0 160 44" fill="none" xmlns="http://www.w3.org/2000/svg">
<path d="M0.189941 21.9791C0.189941 11.8693 0.189941 6.81449 3.17917 3.59886C3.44198 3.31614 3.71927 3.04723 4.00992 2.79322C7.31577 -0.0959218 12.3682 0.059198 22.4732 0.369437L148.553 4.24032C153.671 4.39745 156.23 4.47601 157.806 6.101C159.382 7.72598 159.382 10.2861 159.382 15.4064V27.9988C159.382 33.0985 159.382 35.6484 157.814 37.2717C156.247 38.8951 153.699 38.9845 148.602 39.1633L22.5678 43.5856C12.424 43.9415 7.35211 44.1194 4.02956 41.2293C3.73752 40.9753 3.45888 40.7063 3.19477 40.4233C0.189941 37.2042 0.189941 32.1291 0.189941 21.9791Z" fill="#627EEA"/>
</svg>
