<svg width="8" height="214" viewBox="0 0 8 214" fill="none" xmlns="http://www.w3.org/2000/svg">
<path d="M0.8 4C0.8 5.76731 2.23269 7.2 4 7.2C5.76731 7.2 7.2 5.76731 7.2 4C7.2 2.23269 5.76731 0.8 4 0.8C2.23269 0.8 0.8 2.23269 0.8 4ZM3.4 213C3.4 213.331 3.66863 213.6 4 213.6C4.33137 213.6 4.6 213.331 4.6 213H3.4ZM3.4 4V6.00962H4.6V4H3.4ZM3.4 10.0288V14.0481H4.6V10.0288H3.4ZM3.4 18.0673V22.0865H4.6V18.0673H3.4ZM3.4 26.1058V30.125H4.6V26.1058H3.4ZM3.4 34.1442V38.1635H4.6V34.1442H3.4ZM3.4 42.1827V46.2019H4.6V42.1827H3.4ZM3.4 50.2211V54.2404H4.6V50.2211H3.4ZM3.4 58.2596V62.2788H4.6V58.2596H3.4ZM3.4 66.2981V70.3173H4.6V66.2981H3.4ZM3.4 74.3365V78.3558H4.6V74.3365H3.4ZM3.4 82.375V86.3942H4.6V82.375H3.4ZM3.4 90.4135V94.4327H4.6V90.4135H3.4ZM3.4 98.4519V102.471H4.6V98.4519H3.4ZM3.4 106.49V110.51H4.6V106.49H3.4ZM3.4 114.529V118.548H4.6V114.529H3.4ZM3.4 122.567V126.587H4.6V122.567H3.4ZM3.4 130.606V134.625H4.6V130.606H3.4ZM3.4 138.644V142.663H4.6V138.644H3.4ZM3.4 146.683V150.702H4.6V146.683H3.4ZM3.4 154.721V158.74H4.6V154.721H3.4ZM3.4 162.76V166.779H4.6V162.76H3.4ZM3.4 170.798V174.817H4.6V170.798H3.4ZM3.4 178.837V182.856H4.6V178.837H3.4ZM3.4 186.875V190.894H4.6V186.875H3.4ZM3.4 194.913V198.933H4.6V194.913H3.4ZM3.4 202.952V206.971H4.6V202.952H3.4ZM3.4 210.99V213H4.6V210.99H3.4Z" fill="#0C0A09"/>
</svg>
