<svg width="31" height="53" viewBox="0 0 31 53" fill="none" xmlns="http://www.w3.org/2000/svg">
<path fill-rule="evenodd" clip-rule="evenodd" d="M27.9072 4.04278C29.3923 8.8735 28.5021 14.8543 26.1571 20.6413C22.6522 29.2874 15.9071 37.4992 9.11104 40.7803C8.97018 40.8461 8.80125 40.7869 8.73469 40.6486C8.66621 40.5071 8.72477 40.3408 8.86633 40.2723C15.5566 37.0413 22.1843 28.9436 25.6337 20.4282C27.9266 14.7729 28.8209 8.93041 27.367 4.20888C27.3203 4.05916 27.4043 3.90246 27.554 3.85577C27.7004 3.81099 27.8605 3.89306 27.9072 4.04278Z" fill="black"/>
<path fill-rule="evenodd" clip-rule="evenodd" d="M2.47211 46.7983C6.31158 44.6965 9.46962 42.4624 14.091 41.8945C14.2467 41.8775 14.3886 41.9855 14.4057 42.1413C14.426 42.2951 14.3154 42.4363 14.1622 42.4541C9.07738 43.0797 5.79753 45.7684 1.37159 48.0212C1.13205 48.1418 0.998764 47.9913 0.969887 47.9527C0.926223 47.8962 0.87546 47.793 0.94079 47.6537C0.953716 47.6264 0.98674 47.5764 1.04292 47.5131C1.15318 47.3942 1.3977 47.1713 1.49732 47.0608C1.78222 46.7395 2.05737 46.4128 2.34228 46.0915C3.15687 45.1729 3.95911 44.2481 4.69277 43.2658C7.44324 39.5952 9.71566 36.6114 9.1533 31.8964C9.13363 31.7399 9.24359 31.6013 9.40007 31.5816C9.55324 31.5639 9.6944 31.6745 9.71216 31.8277C10.2954 36.7052 7.98815 39.8084 5.14501 43.6054C4.40002 44.5987 3.58836 45.5377 2.76574 46.4654C2.66612 46.5759 2.56911 46.6871 2.47211 46.7983Z" fill="black"/>
</svg>
