<svg width="451" height="129" viewBox="0 0 451 129" fill="none" xmlns="http://www.w3.org/2000/svg">
<path d="M40.8734 52.002V1.27148H76.5219V13.084H55.7797V22.8574H74.5531V34.0371H55.7797V52.002H40.8734ZM89.8152 52.8457C81.2722 52.8457 76.4909 47.4316 76.4909 38.1152V13.1895H90.905V34.9512C90.905 38.8535 92.7331 41.2441 96.3542 41.2441C99.7644 41.2441 101.839 38.6074 101.839 34.9863V13.1895H116.253V52.002H101.839V44.7949H101.557C99.6589 50.0332 95.6863 52.8457 89.8152 52.8457ZM117.347 52.002V13.1895H131.761V20.3965H132.042C133.94 15.1582 137.913 12.3457 143.784 12.3457C152.327 12.3457 157.108 17.7598 157.108 27.0762V52.002H142.694V30.2402C142.694 26.3379 140.866 23.9473 137.245 23.9473C133.835 23.9473 131.761 26.584 131.761 30.2051V52.002H117.347ZM172.195 52.8457C162.562 52.8457 157.042 45.5332 157.042 32.5957V32.5605C157.042 19.5527 162.492 12.3457 172.265 12.3457C177.82 12.3457 181.968 15.2637 183.796 20.1855H184.078V1.27148H198.492V52.002H184.078V45.3574H183.796C182.038 50.0332 177.82 52.8457 172.195 52.8457ZM177.855 41.2441C181.652 41.2441 184.078 38.0449 184.078 32.6309V32.5957C184.078 27.1465 181.617 23.9473 177.855 23.9473C174.128 23.9473 171.667 27.1465 171.667 32.5605V32.5957C171.667 37.9395 174.093 41.2441 177.855 41.2441ZM234.219 52.916C218.117 52.916 208.59 43.459 208.59 26.584V26.5488C208.59 9.91992 218.152 0.357422 233.762 0.357422C246.488 0.357422 256.051 7.8457 257.07 17.9355L257.105 18.2871H242.445L242.34 17.9355C241.32 14.5605 238.121 12.5215 233.832 12.5215C227.504 12.5215 223.777 17.373 223.777 26.373V26.4082C223.777 35.6191 228.031 40.752 234.57 40.752C239.422 40.752 242.762 38.3965 243.289 34.3535L243.359 33.8262H234.5V23.5605H257.703V30.416C257.703 44.3379 248.949 52.916 234.219 52.916ZM277.887 52.8457C265.16 52.8457 257.496 45.5332 257.496 32.6309V32.5605C257.496 19.9043 265.442 12.3457 277.887 12.3457C290.367 12.3457 298.313 19.7988 298.313 32.5605V32.6309C298.313 45.5684 290.578 52.8457 277.887 52.8457ZM277.922 42.1582C281.508 42.1582 283.688 38.748 283.688 32.6309V32.5605C283.688 26.5488 281.403 23.0332 277.887 23.0332C274.336 23.0332 272.121 26.5488 272.121 32.5605V32.6309C272.121 38.7832 274.266 42.1582 277.922 42.1582ZM317.864 52.8457C305.137 52.8457 297.473 45.5332 297.473 32.6309V32.5605C297.473 19.9043 305.419 12.3457 317.864 12.3457C330.344 12.3457 338.29 19.7988 338.29 32.5605V32.6309C338.29 45.5684 330.555 52.8457 317.864 52.8457ZM317.899 42.1582C321.485 42.1582 323.665 38.748 323.665 32.6309V32.5605C323.665 26.5488 321.38 23.0332 317.864 23.0332C314.313 23.0332 312.098 26.5488 312.098 32.5605V32.6309C312.098 38.7832 314.243 42.1582 317.899 42.1582ZM352.603 52.8457C342.97 52.8457 337.45 45.5332 337.45 32.5957V32.5605C337.45 19.5527 342.899 12.3457 352.673 12.3457C358.228 12.3457 362.376 15.2637 364.204 20.1855H364.485V1.27148H378.899V52.002H364.485V45.3574H364.204C362.446 50.0332 358.228 52.8457 352.603 52.8457ZM358.263 41.2441C362.06 41.2441 364.485 38.0449 364.485 32.6309V32.5957C364.485 27.1465 362.024 23.9473 358.263 23.9473C354.536 23.9473 352.075 27.1465 352.075 32.5605V32.5957C352.075 37.9395 354.501 41.2441 358.263 41.2441ZM398.029 52.8457C385.794 52.8457 379.396 47.6074 378.517 39.873L378.482 39.5566H392.404L392.474 39.8379C393.036 42.0879 394.794 43.4238 398.029 43.4238C400.806 43.4238 402.529 42.4746 402.529 40.9277V40.8926C402.529 39.4863 401.368 38.6777 398.169 38.0801L391.138 36.7793C383.439 35.373 379.361 31.2598 379.361 25.248V25.2129C379.361 17.1621 386.216 12.3457 397.501 12.3457C409.525 12.3457 415.642 18.3223 415.642 25.3887V25.6348H402.564L402.529 25.3184C402.318 23.4902 400.595 21.7676 397.501 21.7676C394.865 21.7676 393.142 22.752 393.142 24.4043V24.4395C393.142 25.8105 394.126 26.584 397.642 27.252L404.673 28.5527C413.04 30.0996 416.802 33.3691 416.802 39.2402V39.2754C416.802 47.6426 409.279 52.8457 398.029 52.8457ZM13.9747 128.002L0.896561 77.2715H16.295L22.1309 108.314H22.4122L29.6192 77.2715H41.8536L49.0606 108.314H49.3419L55.1778 77.2715H70.5762L57.4981 128.002H42.7325L35.877 100.686H35.5958L28.7403 128.002H13.9747ZM77.5766 85.709C73.5336 85.709 70.4398 82.5801 70.4398 78.8535C70.4398 75.127 73.5336 71.998 77.5766 71.998C81.6195 71.998 84.7133 75.127 84.7133 78.8535C84.7133 82.5801 81.6195 85.709 77.5766 85.709ZM70.3695 128.002V89.1895H84.7836V128.002H70.3695ZM103.948 128.846C93.8933 128.846 89.3581 125.4 89.3581 116.26V99.5957H84.2253V89.1895H89.3581V80.6816H103.772V89.1895H110.592V99.5957H103.772V114.045C103.772 117.174 105.178 118.439 108.132 118.439C109.221 118.439 109.819 118.369 110.592 118.264V128.318C109.046 128.6 107.007 128.846 103.948 128.846ZM111.194 128.002V77.2715H125.608V96.3965H125.89C127.788 91.1582 131.761 88.3457 137.632 88.3457C146.175 88.3457 150.956 93.7598 150.956 103.076V128.002H136.542V106.24C136.542 102.338 134.714 99.9473 131.093 99.9473C127.683 99.9473 125.608 102.584 125.608 106.205V128.002H111.194ZM171.456 128.846C158.73 128.846 151.066 121.533 151.066 108.631V108.561C151.066 95.9043 159.011 88.3457 171.456 88.3457C183.937 88.3457 191.882 95.7988 191.882 108.561V108.631C191.882 121.568 184.148 128.846 171.456 128.846ZM171.492 118.158C175.077 118.158 177.257 114.748 177.257 108.631V108.561C177.257 102.549 174.972 99.0332 171.456 99.0332C167.906 99.0332 165.691 102.549 165.691 108.561V108.631C165.691 114.783 167.835 118.158 171.492 118.158ZM205.175 128.846C196.632 128.846 191.851 123.432 191.851 114.115V89.1895H206.265V110.951C206.265 114.854 208.093 117.244 211.715 117.244C215.125 117.244 217.199 114.607 217.199 110.986V89.1895H231.613V128.002H217.199V120.795H216.918C215.019 126.033 211.047 128.846 205.175 128.846ZM250.777 128.846C240.723 128.846 236.188 125.4 236.188 116.26V99.5957H231.055V89.1895H236.188V80.6816H250.602V89.1895H257.422V99.5957H250.602V114.045C250.602 117.174 252.008 118.439 254.961 118.439C256.051 118.439 256.648 118.369 257.422 118.264V128.318C255.875 128.6 253.836 128.846 250.777 128.846ZM279.473 128.002V89.084H266.114V77.2715H307.739V89.084H294.38V128.002H279.473ZM311.716 128.494C303.876 128.494 298.532 123.432 298.532 116.752V116.717C298.532 109.229 304.298 105.115 314.634 104.412L322.79 103.885V102.303C322.79 100.053 321.349 98.6465 318.395 98.6465C315.442 98.6465 313.79 99.9473 313.474 101.529L313.403 101.881H300.536L300.571 101.424C301.169 93.5137 307.884 88.3457 319.204 88.3457C329.997 88.3457 337.204 93.7246 337.204 101.6V128.002H322.79V122.729H322.509C320.329 126.42 316.708 128.494 311.716 128.494ZM312.595 115.697C312.595 117.736 314.317 118.826 316.989 118.826C320.435 118.826 322.79 116.928 322.79 114.361V111.9L317.024 112.322C313.966 112.533 312.595 113.729 312.595 115.662V115.697ZM336.013 128.002L347.193 108.736L335.978 89.1895H352.29L357.036 100.967H357.318L362.029 89.1895H377.532L366.318 108.455L377.532 128.002H361.993L356.439 115.803H356.157L350.814 128.002H336.013ZM394.13 128.846C381.545 128.846 373.88 121.217 373.88 108.596V108.561C373.88 95.9395 381.545 88.3457 393.673 88.3457C405.767 88.3457 413.502 95.9395 413.502 107.752V111.83H387.943C388.084 116.295 390.474 118.932 394.412 118.932C398.209 118.932 400.072 116.646 400.459 115.521L400.494 115.416H413.326L413.22 115.873C412.06 120.936 407.63 128.846 394.13 128.846ZM394.06 98.2598C390.931 98.2598 388.752 100.229 388.119 103.674H400.002C399.369 100.229 397.189 98.2598 394.06 98.2598ZM431.576 128.846C419.342 128.846 412.943 123.607 412.064 115.873L412.029 115.557H425.951L426.021 115.838C426.584 118.088 428.342 119.424 431.576 119.424C434.353 119.424 436.076 118.475 436.076 116.928V116.893C436.076 115.486 434.916 114.678 431.717 114.08L424.685 112.779C416.986 111.373 412.908 107.26 412.908 101.248V101.213C412.908 93.1621 419.764 88.3457 431.049 88.3457C443.072 88.3457 449.189 94.3223 449.189 101.389V101.635H436.111L436.076 101.318C435.865 99.4902 434.143 97.7676 431.049 97.7676C428.412 97.7676 426.689 98.752 426.689 100.404V100.439C426.689 101.811 427.674 102.584 431.189 103.252L438.221 104.553C446.588 106.1 450.35 109.369 450.35 115.24V115.275C450.35 123.643 442.826 128.846 431.576 128.846Z" fill="#0C0A09"/>
</svg>
