<svg width="97" height="24" viewBox="0 0 97 24" fill="none" xmlns="http://www.w3.org/2000/svg">
<path d="M0.5625 23V0.453125H16.4062V5.70312H7.1875V10.0469H15.5312V15.0156H7.1875V23H0.5625ZM23.2744 23.375C19.4775 23.375 17.3525 20.9688 17.3525 16.8281V5.75H23.7588V15.4219C23.7588 17.1562 24.5713 18.2188 26.1806 18.2188C27.6963 18.2188 28.6181 17.0469 28.6181 15.4375V5.75H35.0244V23H28.6181V19.7969H28.4931C27.6494 22.125 25.8838 23.375 23.2744 23.375ZM44.5019 23.375C40.0331 23.375 38.0175 21.8438 38.0175 17.7812V10.375H35.7363V5.75H38.0175V1.96875H44.4238V5.75H47.455V10.375H44.4238V16.7969C44.4238 18.1875 45.0488 18.75 46.3613 18.75C46.8456 18.75 47.1113 18.7188 47.455 18.6719V23.1406C46.7675 23.2656 45.8613 23.375 44.5019 23.375ZM54.4481 23.375C50.6512 23.375 48.5262 20.9688 48.5262 16.8281V5.75H54.9325V15.4219C54.9325 17.1562 55.745 18.2188 57.3544 18.2188C58.87 18.2188 59.7919 17.0469 59.7919 15.4375V5.75H66.1981V23H59.7919V19.7969H59.6669C58.8231 22.125 57.0575 23.375 54.4481 23.375ZM67.6444 23V5.75H74.0506V8.84375H74.1756C74.6131 6.59375 75.9413 5.375 78.0038 5.375C78.5506 5.375 79.0663 5.45312 79.5506 5.625V11.0156C79.0038 10.7812 78.3475 10.6562 77.6913 10.6562C75.285 10.6562 74.0506 11.875 74.0506 14.2812V23H67.6444ZM88.3719 23.375C82.7781 23.375 79.3719 19.9844 79.3719 14.375V14.3594C79.3719 8.75 82.7781 5.375 88.1687 5.375C93.5437 5.375 96.9812 8.75 96.9812 14V15.8125H85.6219C85.6844 17.7969 86.7469 18.9688 88.4969 18.9688C90.1844 18.9688 91.0125 17.9531 91.1844 17.4531L91.2 17.4062H96.9031L96.8562 17.6094C96.3406 19.8594 94.3719 23.375 88.3719 23.375ZM88.3406 9.78125C86.95 9.78125 85.9812 10.6562 85.7 12.1875H90.9812C90.7 10.6562 89.7312 9.78125 88.3406 9.78125Z" fill="#0C0A09"/>
</svg>
