<svg width="56" height="16" viewBox="0 0 56 16" fill="none" xmlns="http://www.w3.org/2000/svg">
<path d="M0.582031 15V0.908203H9.81055V3.33984H3.53125V7.11914H9.26367V9.45312H3.53125V15H0.582031ZM14.2789 15.2148C11.9742 15.2148 10.6656 13.7402 10.6656 11.2891V4.53125H13.5172V10.6934C13.5172 12.0605 14.1617 12.8516 15.441 12.8516C16.7203 12.8516 17.5309 11.9141 17.5309 10.5469V4.53125H20.3824V15H17.5309V13.2715H17.4723C16.9352 14.4727 15.8609 15.2148 14.2789 15.2148ZM25.798 15.2148C23.4738 15.2148 22.3801 14.3164 22.3801 12.0703V6.67969H20.925V4.53125H22.3801V1.97266H25.2609V4.53125H27.175V6.67969H25.2609V11.7578C25.2609 12.7344 25.7004 13.0664 26.5598 13.0664C26.8137 13.0664 26.9992 13.0371 27.175 13.0176V15.1074C26.8527 15.1562 26.3937 15.2148 25.798 15.2148ZM31.7117 15.2148C29.407 15.2148 28.0984 13.7402 28.0984 11.2891V4.53125H30.95V10.6934C30.95 12.0605 31.5945 12.8516 32.8738 12.8516C34.1531 12.8516 34.9637 11.9141 34.9637 10.5469V4.53125H37.8152V15H34.9637V13.2715H34.9051C34.368 14.4727 33.2938 15.2148 31.7117 15.2148ZM39.0707 15V4.53125H41.9223V6.35742H41.9809C42.2934 5.06836 43.143 4.31641 44.3637 4.31641C44.6762 4.31641 44.9691 4.36523 45.184 4.42383V6.93359C44.9496 6.83594 44.559 6.77734 44.1488 6.77734C42.7426 6.77734 41.9223 7.61719 41.9223 9.14062V15H39.0707ZM50.1699 15.2148C46.9668 15.2148 45.0234 13.1348 45.0234 9.78516V9.77539C45.0234 6.44531 46.9863 4.31641 50.0527 4.31641C53.1191 4.31641 55.043 6.39648 55.043 9.56055V10.4395H47.8359C47.8652 12.1094 48.7734 13.0859 50.2285 13.0859C51.4004 13.0859 52.1133 12.4414 52.3184 11.8555L52.3379 11.7969H54.9551L54.9258 11.9043C54.6035 13.4473 53.1582 15.2148 50.1699 15.2148ZM50.1016 6.44531C48.9297 6.44531 48.0508 7.22656 47.8652 8.64258H52.3086C52.1328 7.19727 51.2832 6.44531 50.1016 6.44531Z" fill="#0C0A09"/>
</svg>
