<svg width="25" height="55" viewBox="0 0 25 55" fill="none" xmlns="http://www.w3.org/2000/svg">
<path d="M12.5135 1L12.5135 40.2192" stroke="black" stroke-width="0.807303" stroke-linecap="round"/>
<path fill-rule="evenodd" clip-rule="evenodd" d="M11.6506 51.3263C10.8582 45.1738 10.6825 39.6761 7.87998 33.9682C7.78355 33.7776 7.57932 33.7109 7.42021 33.8264C7.26051 33.9365 7.2074 34.1835 7.30128 34.3718C10.3841 40.653 10.2194 46.6815 11.2932 53.6266C11.3525 54.0014 11.5906 54.0216 11.6478 54.0208C11.7326 54.0212 11.8665 53.9893 11.9505 53.795C11.967 53.7568 11.9902 53.6762 12.0093 53.558C12.0417 53.3307 12.0751 52.8618 12.1073 52.6538C12.2043 52.0542 12.3134 51.4609 12.4104 50.8613C12.6877 49.147 12.9796 47.4414 13.3753 45.7633C14.8475 39.4828 16.0179 34.3361 20.8668 30.8914C21.0284 30.7782 21.0796 30.5342 20.9851 30.3406C20.8912 30.1523 20.685 30.0887 20.5279 30.2012C15.5108 33.7628 14.2531 39.0521 12.7288 45.5466C12.3309 47.247 12.0323 48.9756 11.7523 50.7068C11.7201 50.9149 11.6853 51.1206 11.6506 51.3263Z" fill="black"/>
</svg>
