<svg width="58" height="102" viewBox="0 0 58 102" fill="none" xmlns="http://www.w3.org/2000/svg">
<path fill-rule="evenodd" clip-rule="evenodd" d="M30.2041 1.69965C23.0368 8.36242 18.7392 19.2534 17.0689 31.2279C14.5754 49.1198 17.9359 69.4206 26.1556 81.5022C26.3281 81.749 26.6687 81.8132 26.9142 81.6458C27.1661 81.4747 27.2289 81.1391 27.0578 80.8872C18.9671 68.992 15.6929 48.9963 18.1528 31.3774C19.783 19.6741 23.9398 9.01103 30.9491 2.50111C31.1723 2.29525 31.1832 1.95118 30.9773 1.72793C30.7752 1.5111 30.4274 1.49379 30.2041 1.69965Z" fill="black"/>
<path fill-rule="evenodd" clip-rule="evenodd" d="M31.4601 98.0215C27.0566 90.7796 23.9238 83.9758 16.7241 78.5494C16.4794 78.37 16.1369 78.4137 15.9575 78.6584C15.7744 78.8967 15.8232 79.2406 16.0629 79.4187C23.9839 85.3908 26.8808 93.0748 32.1216 101.137C32.4065 101.572 32.7758 101.448 32.8615 101.412C32.9894 101.359 33.1744 101.235 33.1998 100.938C33.2046 100.88 33.1976 100.764 33.1647 100.604C33.0949 100.298 32.9006 99.6871 32.8406 99.4053C32.6739 98.5907 32.5288 97.7764 32.3621 96.9618C31.8855 94.6327 31.4355 92.3054 31.1563 89.9478C30.0977 81.1298 29.1759 73.9262 34.6838 66.5639C34.8683 66.3206 34.8181 65.9817 34.5748 65.7972C34.3351 65.6192 33.9913 65.668 33.8132 65.9077C28.113 73.5221 28.9776 80.9597 30.0692 90.0794C30.3568 92.4663 30.8087 94.8268 31.29 97.1788C31.3501 97.4606 31.4051 97.741 31.4601 98.0215Z" fill="black"/>
</svg>
