<svg width="36" height="81" viewBox="0 0 36 81" fill="none" xmlns="http://www.w3.org/2000/svg">
<path d="M17.458 1L17.458 59.2967" stroke="black" stroke-width="1.2" stroke-linecap="round"/>
<path fill-rule="evenodd" clip-rule="evenodd" d="M16.1751 75.8065C14.9973 66.6612 14.7361 58.4892 10.5703 50.0048C10.427 49.7215 10.1234 49.6223 9.88692 49.794C9.64954 49.9577 9.57059 50.3249 9.71015 50.6048C14.2925 59.9413 14.0477 68.9023 15.6439 79.2257C15.7321 79.7828 16.086 79.8128 16.1709 79.8117C16.2969 79.8123 16.496 79.7648 16.6209 79.476C16.6454 79.4192 16.6799 79.2995 16.7083 79.1237C16.7565 78.7859 16.8061 78.0889 16.854 77.7797C16.9981 76.8884 17.1603 76.0066 17.3045 75.1153C17.7166 72.5671 18.1506 70.0318 18.7388 67.5375C20.9271 58.2019 22.6667 50.5517 29.8743 45.4314C30.1146 45.2632 30.1906 44.9005 30.0502 44.6126C29.9106 44.3327 29.6041 44.2382 29.3705 44.4054C21.9131 49.6995 20.0436 57.5618 17.7777 67.2154C17.1863 69.7428 16.7425 72.3123 16.3263 74.8856C16.2784 75.1949 16.2267 75.5007 16.1751 75.8065Z" fill="black"/>
</svg>
