<svg width="10" height="15" viewBox="0 0 10 15" fill="none" xmlns="http://www.w3.org/2000/svg">
<path d="M9.44079 5.80974C9.63694 5.80974 9.79604 5.65401 9.79604 5.46201V4.1136C9.79604 3.9216 9.63694 3.76587 9.44079 3.76587H7.08441V1.3061C7.08441 1.06969 6.88826 0.877686 6.64674 0.877686H3.94597C3.70446 0.877686 3.5083 1.06969 3.5083 1.3061V3.76524H1.15192C0.955769 3.76524 0.796675 3.92097 0.796675 4.11298V5.46138C0.796675 5.65338 0.955769 5.80911 1.15192 5.80911H3.5083V7.35577H1.10081C0.932767 7.35577 0.796036 7.48961 0.796036 7.6541V9.10132C0.796036 9.26643 0.932767 9.39964 1.10081 9.39964H3.50766V14.4493C3.50766 14.6857 3.70382 14.8777 3.94533 14.8777H6.6461C6.88762 14.8777 7.08377 14.6857 7.08377 14.4493V9.39964H9.49063C9.65867 9.39964 9.7954 9.2658 9.7954 9.10132V7.6541C9.7954 7.48899 9.65867 7.35577 9.49063 7.35577H7.08377V5.80911H9.44079V5.80974Z" fill="#0C0A09"/>
</svg>
