<svg width="58" height="102" viewBox="0 0 58 102" fill="none" xmlns="http://www.w3.org/2000/svg">
<path fill-rule="evenodd" clip-rule="evenodd" d="M27.6816 99.8819C34.8489 93.2191 39.1465 82.3281 40.8169 70.3536C43.3103 52.4618 39.9498 32.161 31.7301 20.0794C31.5577 19.8325 31.217 19.7684 30.9716 19.9358C30.7197 20.1068 30.6569 20.4424 30.8279 20.6943C38.9187 32.5895 42.1928 52.5853 39.7329 70.2041C38.1027 81.9075 33.9459 92.5705 26.9367 99.0804C26.7134 99.2863 26.7026 99.6304 26.9084 99.8536C27.1106 100.07 27.4584 100.088 27.6816 99.8819Z" fill="black"/>
<path fill-rule="evenodd" clip-rule="evenodd" d="M26.4257 3.56058C30.8291 10.8024 33.9619 17.6062 41.1616 23.0326C41.4063 23.2121 41.7488 23.1683 41.9282 22.9236C42.1114 22.6853 42.0625 22.3415 41.8229 22.1634C33.9019 16.1912 31.0049 8.50721 25.7641 0.444558C25.4792 0.0103578 25.11 0.133723 25.0243 0.170396C24.8963 0.222872 24.7113 0.346759 24.686 0.643614C24.6812 0.701971 24.6882 0.817759 24.721 0.978389C24.7909 1.28447 24.9851 1.89496 25.0452 2.17673C25.2119 2.99134 25.3569 3.80559 25.5236 4.6202C26.0002 6.94929 26.4502 9.27666 26.7295 11.6342C27.788 20.4523 28.7098 27.6559 23.2019 35.0181C23.0174 35.2614 23.0676 35.6003 23.311 35.7848C23.5506 35.9629 23.8945 35.914 24.0726 35.6743C29.7728 28.06 28.9082 20.6223 27.8166 11.5026C27.529 9.11571 27.077 6.75528 26.5957 4.40324C26.5357 4.12146 26.4807 3.841 26.4257 3.56058Z" fill="black"/>
</svg>
