<svg width="175" height="10" viewBox="0 0 175 10" fill="none" xmlns="http://www.w3.org/2000/svg">
<path d="M4 8.2C5.76731 8.2 7.2 6.76731 7.2 5C7.2 3.23269 5.76731 1.8 4 1.8C2.23269 1.8 0.8 3.23269 0.8 5C0.8 6.76731 2.23269 8.2 4 8.2ZM174.424 5.42426C174.659 5.18994 174.659 4.81004 174.424 4.57573L170.606 0.757352C170.372 0.523037 169.992 0.523037 169.757 0.757352C169.523 0.991667 169.523 1.37157 169.757 1.60588L173.151 4.99999L169.757 8.39411C169.523 8.62842 169.523 9.00832 169.757 9.24263C169.992 9.47695 170.372 9.47695 170.606 9.24263L174.424 5.42426ZM4 5.6L6.02381 5.6L6.02381 4.4L4 4.4L4 5.6ZM10.0714 5.6L14.119 5.6L14.119 4.4L10.0714 4.4L10.0714 5.6ZM18.1667 5.6L22.2143 5.6L22.2143 4.4L18.1667 4.4L18.1667 5.6ZM26.2619 5.6L30.3095 5.6L30.3095 4.4L26.2619 4.4L26.2619 5.6ZM34.3571 5.6L38.4048 5.6L38.4048 4.4L34.3571 4.4L34.3571 5.6ZM42.4524 5.6L46.5 5.6L46.5 4.4L42.4524 4.4L42.4524 5.6ZM50.5476 5.6L54.5952 5.6L54.5952 4.4L50.5476 4.4L50.5476 5.6ZM58.6429 5.6L62.6905 5.6L62.6905 4.4L58.6429 4.4L58.6429 5.6ZM66.7381 5.6L70.7857 5.6L70.7857 4.4L66.7381 4.4L66.7381 5.6ZM74.8333 5.6L78.881 5.6L78.881 4.4L74.8333 4.4L74.8333 5.6ZM82.9286 5.6L86.9762 5.6L86.9762 4.4L82.9286 4.4L82.9286 5.6ZM91.0238 5.6L95.0714 5.6L95.0714 4.4L91.0238 4.4L91.0238 5.6ZM99.1191 5.6L103.167 5.6L103.167 4.4L99.1191 4.4L99.1191 5.6ZM107.214 5.6L111.262 5.6L111.262 4.4L107.214 4.4L107.214 5.6ZM115.31 5.6L119.357 5.59999L119.357 4.39999L115.31 4.4L115.31 5.6ZM123.405 5.59999L127.452 5.59999L127.452 4.39999L123.405 4.39999L123.405 5.59999ZM131.5 5.59999L135.548 5.59999L135.548 4.39999L131.5 4.39999L131.5 5.59999ZM139.595 5.59999L143.643 5.59999L143.643 4.39999L139.595 4.39999L139.595 5.59999ZM147.691 5.59999L151.738 5.59999L151.738 4.39999L147.691 4.39999L147.691 5.59999ZM155.786 5.59999L159.833 5.59999L159.833 4.39999L155.786 4.39999L155.786 5.59999ZM163.881 5.59999L167.929 5.59999L167.929 4.39999L163.881 4.39999L163.881 5.59999ZM171.976 5.59999L174 5.59999L174 4.39999L171.976 4.39999L171.976 5.59999Z" fill="#0C0A09"/>
</svg>
