<svg width="297" height="96" viewBox="0 0 297 96" fill="none" xmlns="http://www.w3.org/2000/svg">
<path d="M0.34375 38V4.17969H10.2812V17.0469H22.1875V4.17969H32.125V38H22.1875V24.9219H10.2812V38H0.34375ZM39.6381 9.80469C36.9428 9.80469 34.8803 7.71875 34.8803 5.23438C34.8803 2.75 36.9428 0.664062 39.6381 0.664062C42.3334 0.664062 44.3959 2.75 44.3959 5.23438C44.3959 7.71875 42.3334 9.80469 39.6381 9.80469ZM34.8334 38V12.125H44.4428V38H34.8334ZM58.6122 38.5625C50.4559 38.5625 46.1903 35.0703 45.6044 29.9141L45.5809 29.7031H54.8622L54.9091 29.8906C55.2841 31.3906 56.4559 32.2812 58.6122 32.2812C60.4637 32.2812 61.6122 31.6484 61.6122 30.6172V30.5938C61.6122 29.6562 60.8387 29.1172 58.7059 28.7188L54.0184 27.8516C48.8856 26.9141 46.1669 24.1719 46.1669 20.1641V20.1406C46.1669 14.7734 50.7372 11.5625 58.2606 11.5625C66.2762 11.5625 70.3544 15.5469 70.3544 20.2578V20.4219H61.6356L61.6122 20.2109C61.4716 18.9922 60.3231 17.8438 58.2606 17.8438C56.5028 17.8438 55.3544 18.5 55.3544 19.6016V19.625C55.3544 20.5391 56.0106 21.0547 58.3544 21.5L63.0419 22.3672C68.62 23.3984 71.1278 25.5781 71.1278 29.4922V29.5156C71.1278 35.0938 66.1122 38.5625 58.6122 38.5625ZM84.3128 38.5625C77.6097 38.5625 74.5863 36.2656 74.5863 30.1719V19.0625H71.1644V12.125H74.5863V6.45312H84.1956V12.125H88.7425V19.0625H84.1956V28.6953C84.1956 30.7812 85.1331 31.625 87.1019 31.625C87.8284 31.625 88.2269 31.5781 88.7425 31.5078V38.2109C87.7113 38.3984 86.3519 38.5625 84.3128 38.5625ZM103.404 38.5625C94.9197 38.5625 89.8103 33.6875 89.8103 25.0859V25.0391C89.8103 16.6016 95.1072 11.5625 103.404 11.5625C111.724 11.5625 117.021 16.5312 117.021 25.0391V25.0859C117.021 33.7109 111.865 38.5625 103.404 38.5625ZM103.427 31.4375C105.818 31.4375 107.271 29.1641 107.271 25.0859V25.0391C107.271 21.0312 105.748 18.6875 103.404 18.6875C101.037 18.6875 99.5603 21.0312 99.5603 25.0391V25.0859C99.5603 29.1875 100.99 31.4375 103.427 31.4375ZM118.558 38V12.125H128.167V16.7656H128.355C129.011 13.3906 131.003 11.5625 134.097 11.5625C134.917 11.5625 135.691 11.6797 136.417 11.9375V20.0234C135.597 19.6719 134.613 19.4844 133.628 19.4844C130.019 19.4844 128.167 21.3125 128.167 24.9219V38H118.558ZM143.719 46.3438C141.844 46.3438 140.016 46.1328 138.938 45.9453V39.1016C139.548 39.2188 140.673 39.4062 142.219 39.4062C143.719 39.4062 144.54 38.8906 144.774 38.2578L144.868 38L136.173 12.125H146.837L150.774 31.1094H150.962L154.876 12.125H165.024L157.313 37.3906C155.11 44.5859 150.493 46.3438 143.719 46.3438ZM189.613 38.6094C179.136 38.6094 172.597 31.9062 172.597 21.1016V21.0547C172.597 10.2734 179.183 3.57031 189.613 3.57031C200.113 3.57031 206.675 10.2969 206.675 21.0547V21.1016C206.675 31.8828 200.136 38.6094 189.613 38.6094ZM189.613 30.5C193.902 30.5 196.55 26.8672 196.55 21.1016V21.0547C196.55 15.2422 193.832 11.6797 189.613 11.6797C185.464 11.6797 182.722 15.2188 182.722 21.0547V21.1016C182.722 26.9375 185.441 30.5 189.613 30.5ZM210.884 38V19.0625H207.462V12.125H210.884V11.1172C210.884 5.96094 213.392 3.61719 220.751 3.61719C222.368 3.61719 224.196 3.80469 225.181 4.01562V9.75781C224.735 9.66406 224.056 9.61719 223.423 9.61719C221.126 9.61719 220.212 10.4141 220.212 11.5859V12.125H225.181V19.0625H220.493V38H210.884ZM0.34375 95V61.1797H10.2812V95H0.34375ZM12.9897 95V69.125H22.5991V73.9297H22.7866C24.0522 70.4375 26.7006 68.5625 30.6147 68.5625C36.31 68.5625 39.4975 72.1719 39.4975 78.3828V95H29.8881V80.4922C29.8881 77.8906 28.6694 76.2969 26.2553 76.2969C23.9819 76.2969 22.5991 78.0547 22.5991 80.4688V95H12.9897ZM50.995 95.5625C44.5731 95.5625 40.8934 90.6875 40.8934 82.0625V82.0391C40.8934 73.3672 44.5262 68.5625 51.0419 68.5625C54.745 68.5625 57.5106 70.5078 58.7294 73.7891H58.9169V61.1797H68.5262V95H58.9169V90.5703H58.7294C57.5575 93.6875 54.745 95.5625 50.995 95.5625ZM54.7684 87.8281C57.2997 87.8281 58.9169 85.6953 58.9169 82.0859V82.0625C58.9169 78.4297 57.2762 76.2969 54.7684 76.2969C52.2841 76.2969 50.6434 78.4297 50.6434 82.0391V82.0625C50.6434 85.625 52.2606 87.8281 54.7684 87.8281ZM83.5628 95.5625C75.1722 95.5625 70.0628 90.4766 70.0628 82.0625V82.0391C70.0628 73.625 75.1722 68.5625 83.2581 68.5625C91.3206 68.5625 96.4769 73.625 96.4769 81.5V84.2188H79.4378C79.5316 87.1953 81.1253 88.9531 83.7503 88.9531C86.2816 88.9531 87.5238 87.4297 87.7816 86.6797L87.805 86.6094H96.3597L96.2894 86.9141C95.5159 90.2891 92.5628 95.5625 83.5628 95.5625ZM83.5159 75.1719C81.43 75.1719 79.9769 76.4844 79.555 78.7812H87.4769C87.055 76.4844 85.6019 75.1719 83.5159 75.1719ZM96.1853 95L103.638 82.1562L96.1619 69.125H107.037L110.201 76.9766H110.388L113.529 69.125H123.865L116.388 81.9688L123.865 95H113.506L109.802 86.8672H109.615L106.052 95H96.1853ZM140.016 95L131.298 61.1797H141.563L145.454 81.875H145.641L150.446 61.1797H158.602L163.407 81.875H163.594L167.485 61.1797H177.751L169.032 95H159.188L154.618 76.7891H154.43L149.86 95H140.016ZM183.834 95.3281C178.607 95.3281 175.045 91.9531 175.045 87.5V87.4766C175.045 82.4844 178.889 79.7422 185.779 79.2734L191.217 78.9219V77.8672C191.217 76.3672 190.256 75.4297 188.287 75.4297C186.318 75.4297 185.217 76.2969 185.006 77.3516L184.959 77.5859H176.381L176.404 77.2812C176.803 72.0078 181.279 68.5625 188.826 68.5625C196.022 68.5625 200.826 72.1484 200.826 77.3984V95H191.217V91.4844H191.029C189.576 93.9453 187.162 95.3281 183.834 95.3281ZM184.42 86.7969C184.42 88.1562 185.568 88.8828 187.35 88.8828C189.647 88.8828 191.217 87.6172 191.217 85.9062V84.2656L187.373 84.5469C185.334 84.6875 184.42 85.4844 184.42 86.7734V86.7969ZM203.136 95V61.1797H212.746V95H203.136ZM215.149 95V61.1797H224.759V95H215.149ZM239.889 95.5625C231.498 95.5625 226.389 90.4766 226.389 82.0625V82.0391C226.389 73.625 231.498 68.5625 239.584 68.5625C247.647 68.5625 252.803 73.625 252.803 81.5V84.2188H235.764C235.858 87.1953 237.452 88.9531 240.077 88.9531C242.608 88.9531 243.85 87.4297 244.108 86.6797L244.131 86.6094H252.686L252.616 86.9141C251.842 90.2891 248.889 95.5625 239.889 95.5625ZM239.842 75.1719C237.756 75.1719 236.303 76.4844 235.881 78.7812H243.803C243.381 76.4844 241.928 75.1719 239.842 75.1719ZM266.34 95.5625C259.637 95.5625 256.613 93.2656 256.613 87.1719V76.0625H253.191V69.125H256.613V63.4531H266.223V69.125H270.769V76.0625H266.223V85.6953C266.223 87.7812 267.16 88.625 269.129 88.625C269.855 88.625 270.254 88.5781 270.769 88.5078V95.2109C269.738 95.3984 268.379 95.5625 266.34 95.5625ZM284.493 95.5625C276.337 95.5625 272.072 92.0703 271.486 86.9141L271.462 86.7031H280.743L280.79 86.8906C281.165 88.3906 282.337 89.2812 284.493 89.2812C286.345 89.2812 287.493 88.6484 287.493 87.6172V87.5938C287.493 86.6562 286.72 86.1172 284.587 85.7188L279.9 84.8516C274.767 83.9141 272.048 81.1719 272.048 77.1641V77.1406C272.048 71.7734 276.618 68.5625 284.142 68.5625C292.158 68.5625 296.236 72.5469 296.236 77.2578V77.4219H287.517L287.493 77.2109C287.353 75.9922 286.204 74.8438 284.142 74.8438C282.384 74.8438 281.236 75.5 281.236 76.6016V76.625C281.236 77.5391 281.892 78.0547 284.236 78.5L288.923 79.3672C294.501 80.3984 297.009 82.5781 297.009 86.4922V86.5156C297.009 92.0938 291.993 95.5625 284.493 95.5625Z" fill="#0C0A09"/>
</svg>
