<svg width="8" height="160" viewBox="0 0 8 160" fill="none" xmlns="http://www.w3.org/2000/svg">
<path d="M4.00001 160L7.46411 154L0.535905 154L4.00001 160ZM3.4 2.62268e-08L3.4 2L4.6 2L4.6 -2.62268e-08L3.4 2.62268e-08ZM3.4 6L3.4 10L4.6 10L4.6 6L3.4 6ZM3.4 14L3.4 18L4.6 18L4.6 14L3.4 14ZM3.4 22L3.4 26L4.6 26L4.6 22L3.4 22ZM3.4 30L3.4 34L4.6 34L4.6 30L3.4 30ZM3.4 38L3.4 42L4.6 42L4.6 38L3.4 38ZM3.4 46L3.4 50L4.6 50L4.6 46L3.4 46ZM3.4 54L3.4 58L4.6 58L4.6 54L3.4 54ZM3.4 62L3.4 66L4.6 66L4.6 62L3.4 62ZM3.4 70L3.4 74L4.6 74L4.6 70L3.4 70ZM3.4 78L3.4 82L4.6 82L4.6 78L3.4 78ZM3.4 86L3.4 90L4.6 90L4.6 86L3.4 86ZM3.4 94L3.4 98L4.6 98L4.6 94L3.4 94ZM3.4 102L3.4 106L4.6 106L4.6 102L3.4 102ZM3.4 110L3.4 114L4.60001 114L4.6 110L3.4 110ZM3.40001 118L3.40001 122L4.60001 122L4.60001 118L3.40001 118ZM3.40001 126L3.40001 130L4.60001 130L4.60001 126L3.40001 126ZM3.40001 134L3.40001 138L4.60001 138L4.60001 134L3.40001 134ZM3.40001 142L3.40001 146L4.60001 146L4.60001 142L3.40001 142ZM3.40001 150L3.40001 154L4.60001 154L4.60001 150L3.40001 150Z" fill="#0C0A09"/>
</svg>
