<svg width="520" height="8" viewBox="0 0 520 8" fill="none" xmlns="http://www.w3.org/2000/svg">
<path d="M0.8 4C0.8 5.76731 2.23269 7.2 4 7.2C5.76731 7.2 7.2 5.76731 7.2 4C7.2 2.23269 5.76731 0.8 4 0.8C2.23269 0.8 0.8 2.23269 0.8 4ZM520 4L514 0.535898V7.4641L520 4ZM4 4.6H5.98462V3.4H4V4.6ZM9.95385 4.6H13.9231V3.4H9.95385V4.6ZM17.8923 4.6H21.8615V3.4H17.8923V4.6ZM25.8308 4.6H29.8V3.4H25.8308V4.6ZM33.7692 4.6H37.7385V3.4H33.7692V4.6ZM41.7077 4.6H45.6769V3.4H41.7077V4.6ZM49.6462 4.6H53.6154V3.4H49.6462V4.6ZM57.5846 4.6H61.5538V3.4H57.5846V4.6ZM65.5231 4.6H69.4923V3.4H65.5231V4.6ZM73.4615 4.6H77.4308V3.4H73.4615V4.6ZM81.4 4.6H85.3692V3.4H81.4V4.6ZM89.3385 4.6H93.3077V3.4H89.3385V4.6ZM97.2769 4.6H101.246V3.4H97.2769V4.6ZM105.215 4.6H109.185V3.4H105.215V4.6ZM113.154 4.6H117.123V3.4H113.154V4.6ZM121.092 4.6H125.062V3.4H121.092V4.6ZM129.031 4.6H133V3.4H129.031V4.6ZM136.969 4.6H140.938V3.4H136.969V4.6ZM144.908 4.6H148.877V3.4H144.908V4.6ZM152.846 4.6H156.815V3.4H152.846V4.6ZM160.785 4.6H164.754V3.4H160.785V4.6ZM168.723 4.6H172.692V3.4H168.723V4.6ZM176.662 4.6H180.631V3.4H176.662V4.6ZM184.6 4.6H188.569V3.4H184.6V4.6ZM192.539 4.6H196.508V3.4H192.539V4.6ZM200.477 4.6H204.446V3.4H200.477V4.6ZM208.416 4.6H212.385V3.4H208.416V4.6ZM216.354 4.6H220.323V3.4H216.354V4.6ZM224.292 4.6H228.262V3.4H224.292V4.6ZM232.231 4.6H236.2V3.4H232.231V4.6ZM240.169 4.6H244.139V3.4H240.169V4.6ZM248.108 4.6H252.077V3.4H248.108V4.6ZM256.046 4.6H260.016V3.4H256.046V4.6ZM263.985 4.6H267.954V3.4H263.985V4.6ZM271.923 4.6H275.893V3.4H271.923V4.6ZM279.862 4.6H283.831V3.4H279.862V4.6ZM287.8 4.6H291.77V3.4H287.8V4.6ZM295.739 4.6H299.708V3.4H295.739V4.6ZM303.677 4.6H307.646V3.4H303.677V4.6ZM311.616 4.6H315.585V3.4H311.616V4.6ZM319.554 4.6H323.523V3.4H319.554V4.6ZM327.493 4.6H331.462V3.4H327.493V4.6ZM335.431 4.6H339.4V3.4H335.431V4.6ZM343.37 4.6H347.339V3.4H343.37V4.6ZM351.308 4.6H355.277V3.4H351.308V4.6ZM359.247 4.6H363.216V3.4H359.247V4.6ZM367.185 4.6H371.154V3.4H367.185V4.6ZM375.124 4.6H379.093V3.4H375.124V4.6ZM383.062 4.6H387.031V3.4H383.062V4.6ZM391 4.6H394.97V3.4H391V4.6ZM398.939 4.6H402.908V3.4H398.939V4.6ZM406.877 4.6H410.847V3.4H406.877V4.6ZM414.816 4.6H418.785V3.4H414.816V4.6ZM422.754 4.6H426.724V3.4H422.754V4.6ZM430.693 4.6H434.662V3.4H430.693V4.6ZM438.631 4.6H442.601V3.4H438.631V4.6ZM446.57 4.6H450.539V3.4H446.57V4.6ZM454.508 4.6H458.478V3.4H454.508V4.6ZM462.447 4.6H466.416V3.4H462.447V4.6ZM470.385 4.6H474.354V3.4H470.385V4.6ZM478.324 4.6H482.293V3.4H478.324V4.6ZM486.262 4.6H490.231V3.4H486.262V4.6ZM494.201 4.6H498.17V3.4H494.201V4.6ZM502.139 4.6H506.108V3.4H502.139V4.6ZM510.078 4.6H514.047V3.4H510.078V4.6Z" fill="#0C0A09"/>
</svg>
