<svg width="38" height="32" viewBox="0 0 38 32" fill="none" xmlns="http://www.w3.org/2000/svg">
<path d="M15.2617 13.2109C15.5312 10.0352 18.2383 7.79688 21.8125 7.79688C25.0703 7.79688 27.4727 9.68359 27.4727 12.3438C27.4727 14.5469 26.4297 15.8711 22.6562 18.7773L18.4141 22.0117L18.4023 22.082H25.9375L25.3398 25H13.0586L13.5977 22.3633L20.5 16.9844C23.2188 14.875 23.9805 13.9844 23.9805 12.7305C23.9805 11.5117 22.9844 10.6914 21.5781 10.6914C19.9961 10.6914 18.8477 11.6172 18.543 13.2109H15.2617Z" fill="#0C0A09"/>
<path fill-rule="evenodd" clip-rule="evenodd" d="M27.5555 3.57465C29.3977 3.669 30.862 4.6001 32.3263 5.64562C37.1287 9.079 38.7349 14.4061 35.4441 19.6409C30.3268 27.7588 18.4073 33.0718 9.16464 30.6198C7.11772 30.0794 4.34649 29.6031 2.31531 26.9642C0.425841 24.5105 0.504569 21.5935 1.37058 18.893C2.25233 16.1241 3.95285 13.5758 5.30697 11.9377C11.2273 4.79068 23.0837 -1.70496 33.8065 1.71949C34.0269 1.78547 34.2474 1.672 34.3104 1.46607C34.3734 1.26013 34.263 1.0393 34.0584 0.973323C23.0207 -2.55096 10.7864 4.08416 4.69283 11.4394C3.00806 13.482 0.803797 16.8918 0.173974 20.4196C-0.251157 22.8309 0.0479474 25.2957 1.68549 27.4398C3.84263 30.2509 6.78709 30.8014 8.95998 31.3769C18.5018 33.9095 30.8305 28.4412 36.1053 20.057C39.648 14.4305 37.9476 8.69941 32.783 5.009C31.2085 3.87462 29.6024 2.8943 27.6027 2.79212C27.3822 2.78099 27.1933 2.94728 27.1933 3.16324C27.1776 3.37921 27.3508 3.56352 27.5555 3.57465Z" fill="#1E1E1E"/>
</svg>
