<svg width="38" height="32" viewBox="0 0 38 32" fill="none" xmlns="http://www.w3.org/2000/svg">
<path d="M18.5312 17.5586L19.0703 14.957H21.1211C23.0781 14.957 24.3789 14.1367 24.3789 12.7891C24.3789 11.5352 23.3477 10.6914 21.6953 10.6914C20.1953 10.6914 19.0469 11.4883 18.7305 12.7188H15.4727C16.0703 9.69531 18.5781 7.80859 22.0117 7.80859C25.4453 7.80859 27.7891 9.80078 27.7891 12.4023C27.7891 14.4531 26.1133 16.0469 23.8516 16.3516L23.8398 16.4219C25.6797 16.8672 26.7461 18.2148 26.7461 19.9961C26.7461 23.1133 23.8984 25.2812 20.125 25.2812C16.1172 25.2812 13.668 23.1484 13.7383 20.1953C13.7383 20.0547 13.75 19.9141 13.7852 19.7383H17.0781C17.0195 21.25 18.1328 22.375 20.1602 22.375C21.9648 22.375 23.2773 21.3672 23.2773 19.8086C23.2773 18.4258 22.2461 17.5586 20.4883 17.5586H18.5312Z" fill="#0C0A09"/>
<path fill-rule="evenodd" clip-rule="evenodd" d="M27.5555 3.57465C29.3977 3.669 30.862 4.6001 32.3263 5.64562C37.1287 9.079 38.7349 14.4061 35.4441 19.6409C30.3268 27.7588 18.4073 33.0718 9.16464 30.6198C7.11772 30.0794 4.34649 29.6031 2.31531 26.9642C0.425841 24.5105 0.504569 21.5935 1.37058 18.893C2.25233 16.1241 3.95285 13.5758 5.30697 11.9377C11.2273 4.79068 23.0837 -1.70496 33.8065 1.71949C34.0269 1.78547 34.2474 1.672 34.3104 1.46607C34.3734 1.26013 34.263 1.0393 34.0584 0.973323C23.0207 -2.55096 10.7864 4.08416 4.69283 11.4394C3.00806 13.482 0.803797 16.8918 0.173974 20.4196C-0.251157 22.8309 0.0479474 25.2957 1.68549 27.4398C3.84263 30.2509 6.78709 30.8014 8.95998 31.3769C18.5018 33.9095 30.8305 28.4412 36.1053 20.057C39.648 14.4305 37.9476 8.69941 32.783 5.009C31.2085 3.87462 29.6024 2.8943 27.6027 2.79212C27.3822 2.78099 27.1933 2.94728 27.1933 3.16324C27.1776 3.37921 27.3508 3.56352 27.5555 3.57465Z" fill="#1E1E1E"/>
</svg>
