<svg width="30" height="32" viewBox="0 0 30 32" fill="none" xmlns="http://www.w3.org/2000/svg">
<path fill-rule="evenodd" clip-rule="evenodd" d="M19.4384 29.8624C22.2273 29.0797 25.1472 28.6849 27.9797 28.3232C28.5898 28.2474 29.1562 28.6705 29.1998 29.2667C29.287 29.8632 28.8509 30.4088 28.2844 30.4847C25.5391 30.8328 22.7069 31.2054 20.0487 31.9589C19.4822 32.1223 18.8718 31.7859 18.6975 31.2072C18.5232 30.6289 18.8719 30.0262 19.4384 29.8624Z" fill="#0C0A09"/>
<path fill-rule="evenodd" clip-rule="evenodd" d="M10.9856 18.7664C15.474 14.186 20.5289 10.1952 24.9302 5.49198C25.3223 5.05273 26.0196 5.0292 26.4553 5.43925C26.8911 5.84975 26.9345 6.54 26.4988 6.97926C22.0975 11.696 17.0426 15.6999 12.5542 20.2937C12.1184 20.7225 11.4213 20.7286 10.9856 20.3068C10.5934 19.8854 10.5498 19.1952 10.9856 18.7664Z" fill="#0C0A09"/>
<path fill-rule="evenodd" clip-rule="evenodd" d="M2.57274 1.14858C2.44201 3.77017 2.31154 6.39175 2.18081 9.01377C2.18081 9.61426 1.65763 10.0779 1.04755 10.0487C0.437478 10.0191 0.00196457 9.50793 0.00196457 8.90701C0.132695 6.28107 0.26317 3.65556 0.393901 1.03005C0.437478 0.429562 0.960485 -0.0310455 1.57056 0.00163711C2.13706 0.0343198 2.61632 0.548528 2.57274 1.14858Z" fill="#0C0A09"/>
</svg>
