<svg width="30" height="32" viewBox="0 0 30 32" fill="none" xmlns="http://www.w3.org/2000/svg">
<path fill-rule="evenodd" clip-rule="evenodd" d="M9.77252 29.8624C6.9836 29.0797 4.06369 28.6849 1.23119 28.3232C0.621118 28.2474 0.0547041 28.6705 0.0111272 29.2667C-0.0760266 29.8632 0.359997 30.4088 0.926497 30.4847C3.67184 30.8328 6.50408 31.2054 9.16227 31.9589C9.72877 32.1223 10.3391 31.7859 10.5134 31.2072C10.6877 30.6289 10.339 30.0262 9.77252 29.8624Z" fill="#A856F7"/>
<path fill-rule="evenodd" clip-rule="evenodd" d="M18.2254 18.7664C13.737 14.186 8.68204 10.1952 4.28078 5.49198C3.88859 5.05273 3.19136 5.0292 2.75559 5.43925C2.31982 5.84975 2.27641 6.54 2.71218 6.97926C7.11345 11.696 12.1684 15.6999 16.6568 20.2937C17.0925 20.7225 17.7896 20.7286 18.2254 20.3068C18.6176 19.8854 18.6611 19.1952 18.2254 18.7664Z" fill="#A856F7"/>
<path fill-rule="evenodd" clip-rule="evenodd" d="M26.6382 1.14858C26.7689 3.77017 26.8994 6.39175 27.0301 9.01377C27.0301 9.61426 27.5533 10.0779 28.1634 10.0487C28.7734 10.0191 29.209 9.50793 29.209 8.90701C29.0782 6.28107 28.9478 3.65556 28.817 1.03005C28.7734 0.429562 28.2504 -0.0310455 27.6404 0.00163711C27.0739 0.0343198 26.5946 0.548528 26.6382 1.14858Z" fill="#A856F7"/>
</svg>
