<svg width="79" height="75" viewBox="0 0 79 75" fill="none" xmlns="http://www.w3.org/2000/svg">
<path fill-rule="evenodd" clip-rule="evenodd" d="M35.6079 28.0565C28.1818 21.9522 22.1645 14.6826 17.6428 6.21303C16.7384 4.52607 14.6341 3.88258 12.9298 4.78693C11.2428 5.69128 10.5992 7.79566 11.5036 9.50001C16.4775 18.7696 23.0515 26.7348 31.1907 33.4305C32.6689 34.6479 34.8775 34.4391 36.0949 32.9609C37.3123 31.4652 37.0862 29.2739 35.6079 28.0565Z" fill="#F7931A"/>
<path fill-rule="evenodd" clip-rule="evenodd" d="M31.6476 4.28266C32.0302 11.3087 32.3781 18.3348 32.8129 25.3609C32.9347 27.274 34.5868 28.7348 36.4999 28.6131C38.4129 28.4913 39.8738 26.8392 39.752 24.9261C39.3173 17.9174 38.9694 10.9088 38.5867 3.88269C38.4824 1.97487 36.8303 0.505292 34.9172 0.613118C33.0042 0.720944 31.5259 2.3644 31.6476 4.28266Z" fill="#F7931A"/>
<path fill-rule="evenodd" clip-rule="evenodd" d="M57.4667 5.70837C53.0146 12.4214 47.9713 18.6126 42.893 24.8735C41.6756 26.3692 41.9016 28.5606 43.3972 29.7606C44.8929 30.978 47.0843 30.7518 48.2843 29.2562C53.5017 22.8388 58.6843 16.4561 63.2756 9.55178C64.3365 7.95178 63.8842 5.79533 62.2842 4.73446C60.7016 3.67359 58.5276 4.10837 57.4667 5.70837Z" fill="#F7931A"/>
<path fill-rule="evenodd" clip-rule="evenodd" d="M74.7131 30.6653C62.6435 31.2044 49.8261 31.2218 37.7565 30.4566C35.8435 30.3523 34.1913 31.7957 34.0696 33.7262C33.9478 35.6392 35.4087 37.2914 37.3218 37.4131C49.6348 38.1783 62.7132 38.1609 75.0262 37.6218C76.9392 37.5349 78.4347 35.9001 78.3478 33.9871C78.2608 32.0741 76.6261 30.5783 74.7131 30.6653Z" fill="#F7931A"/>
<path fill-rule="evenodd" clip-rule="evenodd" d="M31.1812 32.8733C38.6247 41.9863 46.3291 50.9255 53.2335 60.456C54.3639 62.0038 56.5379 62.3515 58.1031 61.2211C59.6509 60.0907 59.9987 57.9167 58.8682 56.3689C51.8769 46.7341 44.0857 37.6906 36.5553 28.4732C35.3379 26.995 33.1465 26.7689 31.6682 27.9863C30.1726 29.2037 29.9638 31.395 31.1812 32.8733Z" fill="#F7931A"/>
<path fill-rule="evenodd" clip-rule="evenodd" d="M33.4355 35.5185C35.3833 45.0142 35.9225 54.0925 36.0616 63.7099C36.079 65.6229 37.6616 67.1533 39.5747 67.1359C41.5051 67.1011 43.0355 65.5359 43.0007 63.6054C42.8616 53.5359 42.2877 44.0577 40.2529 34.1099C39.8529 32.2316 38.0269 31.0141 36.1312 31.4141C34.253 31.7967 33.0355 33.6403 33.4355 35.5185Z" fill="#F7931A"/>
<path fill-rule="evenodd" clip-rule="evenodd" d="M33.7495 34.7532C28.1147 46.0228 25.2103 58.5445 19.1756 69.5706C18.2538 71.2402 18.8798 73.3619 20.5667 74.2836C22.2537 75.2053 24.3582 74.5792 25.2799 72.9096C31.3495 61.814 34.2885 49.2227 39.9755 37.8662C40.8277 36.1445 40.132 34.0575 38.4276 33.1879C36.7059 32.3358 34.619 33.0315 33.7495 34.7532Z" fill="#F7931A"/>
<path fill-rule="evenodd" clip-rule="evenodd" d="M36.8506 32.1962C25.6332 34.1788 14.4332 35.0831 3.14621 36.4223C1.23317 36.6484 -0.123351 38.3701 0.102736 40.2832C0.328823 42.1962 2.05072 43.5528 3.96377 43.3267C15.3725 41.9875 26.7116 41.0484 38.0681 39.0484C39.9463 38.7005 41.2159 36.8918 40.8855 35.0136C40.5376 33.1179 38.7462 31.8484 36.8506 32.1962Z" fill="#F7931A"/>
<path fill-rule="evenodd" clip-rule="evenodd" d="M44.6564 26.9097C42.3433 26.8054 40.152 26.6488 37.8911 26.3184C35.9781 26.0401 34.2215 27.3619 33.9433 29.2575C33.665 31.1532 34.9866 32.9271 36.8823 33.2054C39.3866 33.5706 41.8041 33.7445 44.3432 33.8488C46.2563 33.9358 47.891 32.4575 47.9605 30.527C48.0475 28.614 46.5694 26.9967 44.6564 26.9097Z" fill="#F7931A"/>
</svg>
