<svg width="22" height="23" viewBox="0 0 22 23" fill="none" xmlns="http://www.w3.org/2000/svg">
<path d="M20.4286 13.0714H12.5714V20.9286C12.5714 21.3453 12.4059 21.745 12.1112 22.0397C11.8165 22.3344 11.4168 22.5 11 22.5C10.5832 22.5 10.1835 22.3344 9.88883 22.0397C9.59413 21.745 9.42857 21.3453 9.42857 20.9286V13.0714H1.57143C1.15466 13.0714 0.754961 12.9059 0.460261 12.6112C0.165561 12.3165 0 11.9168 0 11.5C0 11.0832 0.165561 10.6835 0.460261 10.3888C0.754961 10.0941 1.15466 9.92857 1.57143 9.92857H9.42857V2.07143C9.42857 1.65466 9.59413 1.25496 9.88883 0.96026C10.1835 0.66556 10.5832 0.5 11 0.5C11.4168 0.5 11.8165 0.66556 12.1112 0.96026C12.4059 1.25496 12.5714 1.65466 12.5714 2.07143V9.92857H20.4286C20.8453 9.92857 21.245 10.0941 21.5397 10.3888C21.8344 10.6835 22 11.0832 22 11.5C22 11.9168 21.8344 12.3165 21.5397 12.6112C21.245 12.9059 20.8453 13.0714 20.4286 13.0714Z" fill="#0C0A09"/>
</svg>
