<svg width="65" height="69" viewBox="0 0 65 69" fill="none" xmlns="http://www.w3.org/2000/svg">
<path fill-rule="evenodd" clip-rule="evenodd" d="M25.7256 13.7941C25.538 12.6816 25.3968 11.5817 25.3056 10.4817C25.1681 8.83174 25.2531 7.16913 25.2043 5.51913C25.1831 4.81913 25.0993 2.99415 25.1331 2.73165C25.4393 0.444151 27.2855 0.094108 27.8255 0.031608C28.0868 -0.005892 30.7693 -0.305758 31.348 2.66924C32.058 6.30674 32.2855 9.96919 32.0343 13.5567C32.6205 16.6067 33.6231 19.6441 34.9468 22.3941C40.2143 33.3316 50.2518 34.3941 61.1268 34.2942C62.7993 34.2691 64.1881 35.5816 64.2756 37.2441C64.3631 38.9191 63.1181 40.3691 61.4531 40.5191C55.3743 41.1066 44.5893 45.9817 40.8605 51.0567C40.0805 52.1192 39.6268 54.6817 39.0268 57.1942C38.1893 60.6817 37.1931 64.1317 36.0768 65.5817C35.9093 65.8067 33.873 68.1067 33.2655 68.4442C31.8055 69.2442 30.6368 68.7816 29.9731 68.3567C29.3093 67.9316 28.5581 67.0942 28.2581 65.7067C27.9443 64.2567 28.2093 61.2816 28.1605 60.6441C27.983 58.3316 27.5206 53.7941 26.5768 49.8941C26.0681 47.7941 25.5256 45.8566 24.6281 44.8941C21.3056 41.3316 15.9931 41.8567 11.5193 42.4442C11.0056 42.5067 10.4918 42.5817 9.97932 42.6442C8.15807 43.1817 6.22427 43.5816 4.18052 43.8191C1.09427 44.1816 0.586806 41.3441 0.559306 41.1566C0.501806 40.7441 0.288033 38.6192 2.61428 37.7692C2.86803 37.6817 4.74055 37.2691 5.4618 37.1067C6.4668 36.8816 7.48303 36.7067 8.50303 36.5442C19.0393 33.2692 24.7618 24.0691 25.7256 13.7941ZM29.3418 25.1567C33.3193 33.3817 39.3555 37.3567 46.5105 39.1567H46.5093C42.0418 41.4942 37.978 44.4192 35.8243 47.3567C35.0068 48.4692 34.2568 50.7067 33.5805 53.2192C33.2143 50.8817 32.7193 48.3941 32.0656 46.2691C31.3218 43.8441 30.3205 41.8317 29.203 40.6317C27.0455 38.3192 24.338 37.0317 21.4268 36.3942C24.9118 33.3067 27.5543 29.4567 29.3418 25.1567Z" fill="#A856F7"/>
</svg>
