<svg width="175" height="37" viewBox="0 0 175 37" fill="none" xmlns="http://www.w3.org/2000/svg">
<path fill-rule="evenodd" clip-rule="evenodd" d="M64.9489 13.6014C63.89 13.8536 62.8374 14.122 61.7912 14.4081C61.4104 14.512 61.1814 14.9571 61.2786 15.4017L61.2837 15.4192C55.6028 15.4678 49.9237 15.5796 44.248 15.756C36.049 16.0113 27.8002 16.4923 19.6346 17.2935C11.5652 18.0852 9.33563 18.287 2.40019 19.687C2.20185 19.727 1.81839 19.7199 1.61278 19.7846C1.41724 19.846 1.27792 19.9554 1.18883 20.0631C1.07469 20.1995 1.00983 20.3574 0.983412 20.5307C0.955518 20.7196 0.966684 20.9508 1.10888 21.2107C1.50999 21.9401 2.14876 22.1465 2.92392 22.0026C3.59088 21.8786 4.39414 21.4216 5.02664 21.3756C15.5559 20.6112 26.0772 19.7503 36.6077 19.0037C52.7289 17.8609 68.8081 17.4197 84.8923 17.2304C101.808 17.5974 118.72 18.5032 135.608 19.9062C146.607 20.8194 157.586 22.1137 168.573 23.2619C168.566 23.318 168.565 23.3766 168.568 23.4364C168.596 23.8923 168.938 24.2434 169.33 24.2202C169.727 24.1966 173.269 24.1199 173.92 23.9402C174.293 23.8372 174.437 23.5704 174.484 23.4559C174.613 23.1421 174.617 22.7995 174.32 22.4692C174.262 22.4058 174.152 22.301 173.953 22.2325C173.782 22.1726 173.36 22.0944 172.594 22.018C160.289 20.78 147.996 19.2799 135.679 18.2558C130.181 17.7999 124.679 17.3953 119.174 17.0465C126.641 17.0192 134.111 16.9768 141.592 16.875C141.914 16.8717 142.07 16.8126 142.099 16.7986C142.508 16.597 142.532 16.2199 142.522 16.006C142.52 15.9296 142.458 15.2989 141.854 15.2036C141.501 15.1475 138.951 15.0173 137.97 14.9457C133.255 14.5964 133.366 14.6441 128.543 14.3341C117.937 13.6538 107.348 13.1611 96.7323 12.7393C92.4997 12.5713 88.2675 12.4268 84.0344 12.3079C96.22 11.24 108.67 11.4315 120.533 11.4183C126.653 11.4117 132.774 11.4494 138.896 11.6111C141.637 11.6836 144.379 11.8096 147.12 11.898C147.972 11.9254 148.822 11.9759 149.673 12.0092C149.773 12.013 151.093 12.0407 151.31 12.0377C151.877 12.0298 152.001 11.4444 152.006 11.4209C152.029 11.3108 152.115 10.5221 151.41 10.3922C141.216 8.51518 130.551 8.80589 120.269 8.40176C102.274 7.69435 84.236 7.5964 66.2523 8.04062C58.298 8.23701 50.3723 8.74573 42.4322 9.25127C38.4666 9.5038 34.4907 9.77401 30.5671 10.4562C30.1735 10.5248 29.2805 10.5896 28.8479 10.6713C28.6277 10.713 28.4713 10.781 28.3998 10.8278C28.0867 11.0308 28.0269 11.3341 28.0239 11.5472C28.0223 11.7069 28.057 12.2696 28.708 12.4489C38.0106 15.0132 48.2917 13.5478 57.713 13.5623C60.1248 13.566 62.5359 13.5792 64.9489 13.6014ZM72.8059 13.7057C70.0159 14.1703 67.2545 14.7282 64.5332 15.3985C71.3155 15.3692 78.099 15.4295 84.8861 15.577C96.0792 15.4452 107.273 15.435 118.481 15.395C111.23 15.0025 103.978 14.6807 96.7139 14.3922C88.7465 14.0757 80.776 13.8428 72.8059 13.7057ZM111.555 9.76012C96.4729 9.33059 81.3741 9.32183 66.3139 9.69388C58.3738 9.89002 50.4648 10.398 42.5401 10.9026C39.4218 11.1011 36.2951 11.3094 33.1948 11.726C41.2276 12.9658 49.7636 11.8963 57.6849 11.9087C62.6877 11.9164 67.6933 11.9645 72.6977 12.0504C85.3996 9.95181 98.6882 9.76463 111.555 9.76012Z" fill="black"/>
</svg>
