<svg width="650" height="230" viewBox="0 0 650 230" fill="none" xmlns="http://www.w3.org/2000/svg">
<path d="M0.8 4C0.8 5.76731 2.23269 7.2 4 7.2C5.76731 7.2 7.2 5.76731 7.2 4C7.2 2.23269 5.76731 0.8 4 0.8C2.23269 0.8 0.8 2.23269 0.8 4ZM4 229H3.4V229.6H4V229ZM649 229.6C649.331 229.6 649.6 229.331 649.6 229C649.6 228.669 649.331 228.4 649 228.4V229.6ZM3.4 4V6.00893H4.6V4H3.4ZM3.4 10.0268V14.0446H4.6V10.0268H3.4ZM3.4 18.0625V22.0804H4.6V18.0625H3.4ZM3.4 26.0982V30.1161H4.6V26.0982H3.4ZM3.4 34.1339V38.1518H4.6V34.1339H3.4ZM3.4 42.1696V46.1875H4.6V42.1696H3.4ZM3.4 50.2054V54.2232H4.6V50.2054H3.4ZM3.4 58.2411V62.2589H4.6V58.2411H3.4ZM3.4 66.2768V70.2946H4.6V66.2768H3.4ZM3.4 74.3125V78.3304H4.6V74.3125H3.4ZM3.4 82.3482V86.3661H4.6V82.3482H3.4ZM3.4 90.3839V94.4018H4.6V90.3839H3.4ZM3.4 98.4197V102.438H4.6V98.4197H3.4ZM3.4 106.455V110.473H4.6V106.455H3.4ZM3.4 114.491V118.509H4.6V114.491H3.4ZM3.4 122.527V126.545H4.6V122.527H3.4ZM3.4 130.563V134.58H4.6V130.563H3.4ZM3.4 138.598V142.616H4.6V138.598H3.4ZM3.4 146.634V150.652H4.6V146.634H3.4ZM3.4 154.67V158.688H4.6V154.67H3.4ZM3.4 162.705V166.723H4.6V162.705H3.4ZM3.4 170.741V174.759H4.6V170.741H3.4ZM3.4 178.777V182.795H4.6V178.777H3.4ZM3.4 186.812V190.83H4.6V186.812H3.4ZM3.4 194.848V198.866H4.6V194.848H3.4ZM3.4 202.884V206.902H4.6V202.884H3.4ZM3.4 210.92V214.937H4.6V210.92H3.4ZM3.4 218.955V222.973H4.6V218.955H3.4ZM3.4 226.991V229H4.6V226.991H3.4ZM4 229.6H5.99074V228.4H4V229.6ZM9.97222 229.6H13.9537V228.4H9.97222V229.6ZM17.9352 229.6H21.9167V228.4H17.9352V229.6ZM25.8981 229.6H29.8796V228.4H25.8981V229.6ZM33.8611 229.6H37.8426V228.4H33.8611V229.6ZM41.8241 229.6H45.8056V228.4H41.8241V229.6ZM49.787 229.6H53.7685V228.4H49.787V229.6ZM57.75 229.6H61.7315V228.4H57.75V229.6ZM65.713 229.6H69.6945V228.4H65.713V229.6ZM73.6759 229.6H77.6574V228.4H73.6759V229.6ZM81.6389 229.6H85.6204V228.4H81.6389V229.6ZM89.6019 229.6H93.5834V228.4H89.6019V229.6ZM97.5648 229.6H101.546V228.4H97.5648V229.6ZM105.528 229.6H109.509V228.4H105.528V229.6ZM113.491 229.6H117.472V228.4H113.491V229.6ZM121.454 229.6H125.435V228.4H121.454V229.6ZM129.417 229.6H133.398V228.4H129.417V229.6ZM137.38 229.6H141.361V228.4H137.38V229.6ZM145.343 229.6H149.324V228.4H145.343V229.6ZM153.306 229.6H157.287V228.4H153.306V229.6ZM161.269 229.6H165.25V228.4H161.269V229.6ZM169.231 229.6H173.213V228.4H169.231V229.6ZM177.194 229.6H181.176V228.4H177.194V229.6ZM185.157 229.6H189.139V228.4H185.157V229.6ZM193.12 229.6H197.102V228.4H193.12V229.6ZM201.083 229.6H205.065V228.4H201.083V229.6ZM209.046 229.6H213.028V228.4H209.046V229.6ZM217.009 229.6H220.991V228.4H217.009V229.6ZM224.972 229.6H228.954V228.4H224.972V229.6ZM232.935 229.6H236.917V228.4H232.935V229.6ZM240.898 229.6H244.88V228.4H240.898V229.6ZM248.861 229.6H252.842V228.4H248.861V229.6ZM256.824 229.6H260.805V228.4H256.824V229.6ZM264.787 229.6H268.768V228.4H264.787V229.6ZM272.75 229.6H276.731V228.4H272.75V229.6ZM280.713 229.6H284.694V228.4H280.713V229.6ZM288.676 229.6H292.657V228.4H288.676V229.6ZM296.639 229.6H300.62V228.4H296.639V229.6ZM304.602 229.6H308.583V228.4H304.602V229.6ZM312.565 229.6H316.546V228.4H312.565V229.6ZM320.528 229.6H324.509V228.4H320.528V229.6ZM328.491 229.6H332.472V228.4H328.491V229.6ZM336.453 229.6H340.435V228.4H336.453V229.6ZM344.416 229.6H348.398V228.4H344.416V229.6ZM352.379 229.6H356.361V228.4H352.379V229.6ZM360.342 229.6H364.324V228.4H360.342V229.6ZM368.305 229.6H372.287V228.4H368.305V229.6ZM376.268 229.6H380.25V228.4H376.268V229.6ZM384.231 229.6H388.213V228.4H384.231V229.6ZM392.194 229.6H396.176V228.4H392.194V229.6ZM400.157 229.6H404.139V228.4H400.157V229.6ZM408.12 229.6H412.102V228.4H408.12V229.6ZM416.083 229.6H420.064V228.4H416.083V229.6ZM424.046 229.6H428.027V228.4H424.046V229.6ZM432.009 229.6H435.99V228.4H432.009V229.6ZM439.972 229.6H443.953V228.4H439.972V229.6ZM447.935 229.6H451.916V228.4H447.935V229.6ZM455.898 229.6H459.879V228.4H455.898V229.6ZM463.861 229.6H467.842V228.4H463.861V229.6ZM471.824 229.6H475.805V228.4H471.824V229.6ZM479.787 229.6H483.768V228.4H479.787V229.6ZM487.75 229.6H491.731V228.4H487.75V229.6ZM495.712 229.6H499.694V228.4H495.712V229.6ZM503.675 229.6H507.657V228.4H503.675V229.6ZM511.638 229.6H515.62V228.4H511.638V229.6ZM519.601 229.6H523.583V228.4H519.601V229.6ZM527.564 229.6H531.546V228.4H527.564V229.6ZM535.527 229.6H539.509V228.4H535.527V229.6ZM543.49 229.6H547.472V228.4H543.49V229.6ZM551.453 229.6H555.435V228.4H551.453V229.6ZM559.416 229.6H563.398V228.4H559.416V229.6ZM567.379 229.6H571.361V228.4H567.379V229.6ZM575.342 229.6H579.324V228.4H575.342V229.6ZM583.305 229.6H587.287V228.4H583.305V229.6ZM591.268 229.6H595.25V228.4H591.268V229.6ZM599.231 229.6H603.213V228.4H599.231V229.6ZM607.195 229.6H611.176V228.4H607.195V229.6ZM615.157 229.6H619.139V228.4H615.157V229.6ZM623.121 229.6H627.102V228.4H623.121V229.6ZM631.083 229.6H635.065V228.4H631.083V229.6ZM639.047 229.6H643.028V228.4H639.047V229.6ZM647.01 229.6H649V228.4H647.01V229.6Z" fill="#0C0A09"/>
</svg>
