<svg width="41" height="52" viewBox="0 0 41 52" fill="none" xmlns="http://www.w3.org/2000/svg">
<path fill-rule="evenodd" clip-rule="evenodd" d="M27.2344 1.56398C22.7684 3.92966 19.1688 8.78816 16.735 14.5384C13.0996 23.1304 12.0625 33.7066 14.548 40.8322C14.601 40.9783 14.7623 41.0559 14.9072 41.0052C15.0557 40.9535 15.1319 40.7945 15.0802 40.646C12.6341 33.6306 13.6736 23.2182 17.2558 14.7578C19.6333 9.13753 23.1322 4.37392 27.4989 2.06335C27.6378 1.9905 27.6892 1.82032 27.6164 1.68143C27.5445 1.54624 27.3733 1.49112 27.2344 1.56398Z" fill="black"/>
<path fill-rule="evenodd" clip-rule="evenodd" d="M14.9868 49.7821C13.7581 45.5809 13.1048 41.7681 10.2385 38.0988C10.1404 37.9766 9.96375 37.9527 9.84153 38.0507C9.71832 38.1451 9.69673 38.3232 9.79248 38.4441C12.9456 42.482 13.3636 46.7024 14.9003 51.425C14.9844 51.6796 15.1851 51.6675 15.2327 51.6606C15.3036 51.6515 15.4124 51.6145 15.4647 51.4698C15.4749 51.4413 15.4869 51.3826 15.492 51.2981C15.4981 51.1361 15.4828 50.8056 15.4905 50.657C15.5162 50.2283 15.5527 49.8027 15.5784 49.3741C15.652 48.1485 15.7386 46.9274 15.9144 45.714C16.565 41.1736 17.0681 37.4569 20.7998 34.5205C20.9243 34.4238 20.9446 34.248 20.8478 34.1234C20.7521 34.0026 20.574 33.981 20.4531 34.0768C16.5918 37.1132 16.029 40.9391 15.3545 45.6343C15.1789 46.8635 15.0889 48.1014 15.0146 49.339C15.0069 49.4876 14.9968 49.6349 14.9868 49.7821Z" fill="black"/>
</svg>
