<svg width="96" height="48" viewBox="0 0 96 48" fill="none" xmlns="http://www.w3.org/2000/svg">
<path fill-rule="evenodd" clip-rule="evenodd" d="M90.8999 6.48997C72.8803 39.997 36.8842 53.6195 3.45179 34.7558C2.33881 34.1277 0.927435 34.5204 0.299301 35.6196C-0.328834 36.7385 0.0637926 38.1518 1.17677 38.7799C37.0118 59.0176 75.6597 44.5902 94.9749 8.68843C95.5794 7.56956 95.1575 6.15607 94.0327 5.54756C92.908 4.95869 91.5044 5.3711 90.8999 6.48997Z" fill="#A856F7"/>
<path d="M31.5864 20.3852C35.3086 20.3852 38.3262 17.3677 38.3262 13.6455C38.3262 9.9232 35.3086 6.90576 31.5864 6.90576C27.8641 6.90576 24.8467 9.9232 24.8467 13.6455C24.8467 17.3677 27.8641 20.3852 31.5864 20.3852Z" fill="#A856F7"/>
<path d="M59.4888 13.2159C63.1384 13.2159 66.0969 10.2575 66.0969 6.60797C66.0969 2.95846 63.1384 0 59.4888 0C55.8393 0 52.8809 2.95846 52.8809 6.60797C52.8809 10.2575 55.8393 13.2159 59.4888 13.2159Z" fill="#A856F7"/>
</svg>
