<svg width="79" height="40" viewBox="0 0 79 40" fill="none" xmlns="http://www.w3.org/2000/svg">
<path fill-rule="evenodd" clip-rule="evenodd" d="M74.6947 5.33306C59.8875 32.8666 30.3087 44.0606 2.83642 28.5598C1.92186 28.0437 0.762097 28.3664 0.245943 29.2696C-0.270211 30.189 0.05242 31.3504 0.96698 31.8665C30.4136 48.4964 62.1715 36.641 78.0432 7.13959C78.54 6.22019 78.1933 5.05869 77.269 4.55866C76.3448 4.07477 75.1915 4.41366 74.6947 5.33306Z" fill="#F7931A"/>
<path d="M25.9551 16.7512C29.0138 16.7512 31.4934 14.2717 31.4934 11.213C31.4934 8.15431 29.0138 5.6748 25.9551 5.6748C22.8964 5.6748 20.4169 8.15431 20.4169 11.213C20.4169 14.2717 22.8964 16.7512 25.9551 16.7512Z" fill="#F7931A"/>
<path d="M48.8824 10.8599C51.8813 10.8599 54.3125 8.42883 54.3125 5.42994C54.3125 2.43104 51.8813 0 48.8824 0C45.8835 0 43.4525 2.43104 43.4525 5.42994C43.4525 8.42883 45.8835 10.8599 48.8824 10.8599Z" fill="#F7931A"/>
</svg>
