<svg width="15" height="24" viewBox="0 0 15 24" fill="none" xmlns="http://www.w3.org/2000/svg">
<path d="M14.4079 8.479C14.7348 8.479 15 8.21384 15 7.88692V5.59103C15 5.26411 14.7348 4.99895 14.4079 4.99895H10.4806V0.810746C10.4806 0.408219 10.1537 0.0812988 9.75117 0.0812988H5.24989C4.84737 0.0812988 4.52045 0.408219 4.52045 0.810746V4.99788H0.593142C0.266222 4.99788 0.00106511 5.26304 0.00106511 5.58996V7.88586C0.00106511 8.21278 0.266222 8.47794 0.593142 8.47794H4.52045V11.1114H0.507951C0.227885 11.1114 0 11.3393 0 11.6194V14.0835C0 14.3646 0.227885 14.5915 0.507951 14.5915H4.51938V23.1894C4.51938 23.5919 4.8463 23.9188 5.24883 23.9188H9.75011C10.1526 23.9188 10.4796 23.5919 10.4796 23.1894V14.5915H14.491C14.771 14.5915 14.9989 14.3636 14.9989 14.0835V11.6194C14.9989 11.3382 14.771 11.1114 14.491 11.1114H10.4796V8.47794H14.4079V8.479Z" fill="black"/>
</svg>
