<svg width="33" height="32" viewBox="0 0 33 32" fill="none" xmlns="http://www.w3.org/2000/svg">
<path d="M16.2 0.00195312C7.36795 0.00195312 0.199951 7.16995 0.199951 16.002C0.199951 24.834 7.36795 32.002 16.2 32.002C25.032 32.002 32.2 24.834 32.2 16.002C32.2 7.16995 25.032 0.00195312 16.2 0.00195312ZM23.624 10.882C23.384 13.41 22.344 19.554 21.816 22.386C21.592 23.586 21.144 23.986 20.728 24.034C19.8 24.114 19.096 23.426 18.2 22.834C16.792 21.906 15.992 21.33 14.632 20.434C13.048 19.394 14.072 18.818 14.984 17.89C15.224 17.65 19.32 13.922 19.4 13.586C19.4111 13.5351 19.4096 13.4822 19.3956 13.432C19.3817 13.3818 19.3557 13.3358 19.32 13.298C19.224 13.218 19.096 13.25 18.984 13.266C18.84 13.298 16.6 14.786 12.232 17.73C11.592 18.162 11.016 18.386 10.504 18.37C9.92795 18.354 8.83995 18.05 8.02395 17.778C7.01595 17.458 6.23195 17.282 6.29595 16.722C6.32795 16.434 6.72795 16.146 7.47995 15.842C12.152 13.81 15.256 12.466 16.808 11.826C21.256 9.96995 22.168 9.64995 22.776 9.64995C22.904 9.64995 23.208 9.68195 23.4 9.84195C23.56 9.96995 23.608 10.146 23.624 10.274C23.608 10.37 23.6399 10.658 23.624 10.882Z" fill="#121212"/>
</svg>
