<svg width="149" height="49" viewBox="0 0 149 49" fill="none" xmlns="http://www.w3.org/2000/svg">
<path d="M15.9828 19V6.02734H11.5297V2.08984H25.4047V6.02734H20.9516V19H15.9828ZM28.048 4.90234C26.7003 4.90234 25.6691 3.85938 25.6691 2.61719C25.6691 1.375 26.7003 0.332031 28.048 0.332031C29.3956 0.332031 30.4269 1.375 30.4269 2.61719C30.4269 3.85938 29.3956 4.90234 28.048 4.90234ZM25.6456 19V6.0625H30.4503V19H25.6456ZM31.535 19V6.0625H36.3397V8.51172H36.4334C36.9022 6.84766 38.3084 5.78125 40.1131 5.78125C41.9764 5.78125 43.3006 6.8125 43.617 8.62891H43.7108C44.1444 6.91797 45.7147 5.78125 47.6834 5.78125C50.203 5.78125 51.9373 7.59766 51.9373 10.2344V19H47.1327V11.4883C47.1327 10.2578 46.6053 9.64844 45.5623 9.64844C44.5897 9.64844 44.0155 10.3398 44.0155 11.4766V19H39.4569V11.5C39.4569 10.2695 38.9295 9.64844 37.8983 9.64844C36.9256 9.64844 36.3397 10.3516 36.3397 11.4766V19H31.535ZM59.4087 19.2812C55.2134 19.2812 52.6587 16.7383 52.6587 12.5312V12.5195C52.6587 8.3125 55.2134 5.78125 59.2564 5.78125C63.2877 5.78125 65.8658 8.3125 65.8658 12.25V13.6094H57.3462C57.3931 15.0977 58.19 15.9766 59.5025 15.9766C60.7681 15.9766 61.3892 15.2148 61.5181 14.8398L61.5298 14.8047H65.8072L65.772 14.957C65.3853 16.6445 63.9087 19.2812 59.4087 19.2812ZM59.3853 9.08594C58.3423 9.08594 57.6158 9.74219 57.4048 10.8906H61.3658C61.1548 9.74219 60.4283 9.08594 59.3853 9.08594ZM66.6692 19V2.08984H71.4739V19H66.6692ZM75.0195 4.90234C73.6719 4.90234 72.6406 3.85938 72.6406 2.61719C72.6406 1.375 73.6719 0.332031 75.0195 0.332031C76.3672 0.332031 77.3984 1.375 77.3984 2.61719C77.3984 3.85938 76.3672 4.90234 75.0195 4.90234ZM72.6172 19V6.0625H77.4219V19H72.6172ZM78.5066 19V6.0625H83.3112V8.46484H83.405C84.0378 6.71875 85.362 5.78125 87.3191 5.78125C90.1667 5.78125 91.7605 7.58594 91.7605 10.6914V19H86.9558V11.7461C86.9558 10.4453 86.3464 9.64844 85.1394 9.64844C84.0027 9.64844 83.3112 10.5273 83.3112 11.7344V19H78.5066ZM99.2084 19.2812C95.0131 19.2812 92.4584 16.7383 92.4584 12.5312V12.5195C92.4584 8.3125 95.0131 5.78125 99.0561 5.78125C103.087 5.78125 105.665 8.3125 105.665 12.25V13.6094H97.1459C97.1928 15.0977 97.9897 15.9766 99.3022 15.9766C100.568 15.9766 101.189 15.2148 101.318 14.8398L101.33 14.8047H105.607L105.572 14.957C105.185 16.6445 103.708 19.2812 99.2084 19.2812ZM99.185 9.08594C98.142 9.08594 97.4155 9.74219 97.2045 10.8906H101.165C100.955 9.74219 100.228 9.08594 99.185 9.08594ZM118.628 19.3047C113.39 19.3047 110.12 15.9531 110.12 10.5508V10.5273C110.12 5.13672 113.413 1.78516 118.628 1.78516C123.878 1.78516 127.159 5.14844 127.159 10.5273V10.5508C127.159 15.9414 123.89 19.3047 118.628 19.3047ZM118.628 15.25C120.772 15.25 122.097 13.4336 122.097 10.5508V10.5273C122.097 7.62109 120.737 5.83984 118.628 5.83984C116.554 5.83984 115.182 7.60938 115.182 10.5273V10.5508C115.182 13.4688 116.542 15.25 118.628 15.25ZM129.263 19V9.53125H127.552V6.0625H129.263V5.55859C129.263 2.98047 130.517 1.80859 134.197 1.80859C135.005 1.80859 135.92 1.90234 136.412 2.00781V4.87891C136.189 4.83203 135.849 4.80859 135.533 4.80859C134.384 4.80859 133.927 5.20703 133.927 5.79297V6.0625H136.412V9.53125H134.068V19H129.263ZM0.22625 48V31.0898H5.195V48H0.22625ZM6.54922 48V35.0625H11.3539V37.4648H11.4477C12.0805 35.7188 13.4047 34.7812 15.3617 34.7812C18.2094 34.7812 19.8031 36.5859 19.8031 39.6914V48H14.9984V40.7461C14.9984 39.4453 14.3891 38.6484 13.182 38.6484C12.0453 38.6484 11.3539 39.5273 11.3539 40.7344V48H6.54922ZM25.5519 48.2812C22.3409 48.2812 20.5011 45.8438 20.5011 41.5312V41.5195C20.5011 37.1836 22.3175 34.7812 25.5753 34.7812C27.4269 34.7812 28.8097 35.7539 29.4191 37.3945H29.5128V31.0898H34.3175V48H29.5128V45.7852H29.4191C28.8331 47.3438 27.4269 48.2812 25.5519 48.2812ZM27.4386 44.4141C28.7042 44.4141 29.5128 43.3477 29.5128 41.543V41.5312C29.5128 39.7148 28.6925 38.6484 27.4386 38.6484C26.1964 38.6484 25.3761 39.7148 25.3761 41.5195V41.5312C25.3761 43.3125 26.1847 44.4141 27.4386 44.4141ZM41.8358 48.2812C37.6405 48.2812 35.0858 45.7383 35.0858 41.5312V41.5195C35.0858 37.3125 37.6405 34.7812 41.6834 34.7812C45.7147 34.7812 48.2928 37.3125 48.2928 41.25V42.6094H39.7733C39.8202 44.0977 40.617 44.9766 41.9295 44.9766C43.1952 44.9766 43.8162 44.2148 43.9452 43.8398L43.9569 43.8047H48.2342L48.1991 43.957C47.8123 45.6445 46.3358 48.2812 41.8358 48.2812ZM41.8123 38.0859C40.7694 38.0859 40.0428 38.7422 39.8319 39.8906H43.7928C43.5819 38.7422 42.8553 38.0859 41.8123 38.0859ZM48.147 48L51.8736 41.5781L48.1353 35.0625H53.5728L55.1548 38.9883H55.2486L56.8189 35.0625H61.9869L58.2486 41.4844L61.9869 48H56.8072L54.9556 43.9336H54.8619L53.0806 48H48.147ZM70.0625 48L65.7031 31.0898H70.8359L72.7812 41.4375H72.875L75.2773 31.0898H79.3555L81.7578 41.4375H81.8516L83.7969 31.0898H88.9297L84.5703 48H79.6484L77.3633 38.8945H77.2695L74.9844 48H70.0625ZM91.9714 48.1641C89.3581 48.1641 87.5769 46.4766 87.5769 44.25V44.2383C87.5769 41.7422 89.4987 40.3711 92.9441 40.1367L95.6628 39.9609V39.4336C95.6628 38.6836 95.1823 38.2148 94.198 38.2148C93.2136 38.2148 92.6628 38.6484 92.5573 39.1758L92.5339 39.293H88.2448L88.2566 39.1406C88.4558 36.5039 90.6941 34.7812 94.4675 34.7812C98.0652 34.7812 100.467 36.5742 100.467 39.1992V48H95.6628V46.2422H95.5691C94.8425 47.4727 93.6355 48.1641 91.9714 48.1641ZM92.2644 43.8984C92.2644 44.5781 92.8386 44.9414 93.7292 44.9414C94.8777 44.9414 95.6628 44.3086 95.6628 43.4531V42.6328L93.7409 42.7734C92.7214 42.8438 92.2644 43.2422 92.2644 43.8867V43.8984ZM101.622 48V31.0898H106.427V48H101.622ZM107.629 48V31.0898H112.434V48H107.629ZM119.999 48.2812C115.804 48.2812 113.249 45.7383 113.249 41.5312V41.5195C113.249 37.3125 115.804 34.7812 119.847 34.7812C123.878 34.7812 126.456 37.3125 126.456 41.25V42.6094H117.936C117.983 44.0977 118.78 44.9766 120.093 44.9766C121.358 44.9766 121.979 44.2148 122.108 43.8398L122.12 43.8047H126.397L126.362 43.957C125.975 45.6445 124.499 48.2812 119.999 48.2812ZM119.975 38.0859C118.933 38.0859 118.206 38.7422 117.995 39.8906H121.956C121.745 38.7422 121.018 38.0859 119.975 38.0859ZM133.224 48.2812C129.873 48.2812 128.361 47.1328 128.361 44.0859V38.5312H126.65V35.0625H128.361V32.2266H133.166V35.0625H135.439V38.5312H133.166V43.3477C133.166 44.3906 133.634 44.8125 134.619 44.8125C134.982 44.8125 135.181 44.7891 135.439 44.7539V48.1055C134.923 48.1992 134.244 48.2812 133.224 48.2812ZM142.301 48.2812C138.223 48.2812 136.09 46.5352 135.797 43.957L135.785 43.8516H140.426L140.45 43.9453C140.637 44.6953 141.223 45.1406 142.301 45.1406C143.227 45.1406 143.801 44.8242 143.801 44.3086V44.2969C143.801 43.8281 143.414 43.5586 142.348 43.3594L140.004 42.9258C137.438 42.457 136.078 41.0859 136.078 39.082V39.0703C136.078 36.3867 138.364 34.7812 142.125 34.7812C146.133 34.7812 148.172 36.7734 148.172 39.1289V39.2109H143.813L143.801 39.1055C143.731 38.4961 143.157 37.9219 142.125 37.9219C141.246 37.9219 140.672 38.25 140.672 38.8008V38.8125C140.672 39.2695 141 39.5273 142.172 39.75L144.516 40.1836C147.305 40.6992 148.559 41.7891 148.559 43.7461V43.7578C148.559 46.5469 146.051 48.2812 142.301 48.2812Z" fill="#0C0A09"/>
</svg>
