<svg width="298" height="96" viewBox="0 0 298 96" fill="none" xmlns="http://www.w3.org/2000/svg">
<path d="M32.6856 38V12.0547H23.7794V4.17969H51.5294V12.0547H42.6231V38H32.6856ZM56.8159 9.80469C54.1206 9.80469 52.0581 7.71875 52.0581 5.23438C52.0581 2.75 54.1206 0.664062 56.8159 0.664062C59.5112 0.664062 61.5737 2.75 61.5737 5.23438C61.5737 7.71875 59.5112 9.80469 56.8159 9.80469ZM52.0112 38V12.125H61.6206V38H52.0112ZM63.79 38V12.125H73.3994V17.0234H73.5869C74.5244 13.6953 77.3369 11.5625 80.9462 11.5625C84.6728 11.5625 87.3212 13.625 87.9541 17.2578H88.1416C89.0087 13.8359 92.1494 11.5625 96.0869 11.5625C101.126 11.5625 104.595 15.1953 104.595 20.4688V38H94.9853V22.9766C94.9853 20.5156 93.9306 19.2969 91.8447 19.2969C89.8994 19.2969 88.7509 20.6797 88.7509 22.9531V38H79.6337V23C79.6337 20.5391 78.5791 19.2969 76.5166 19.2969C74.5712 19.2969 73.3994 20.7031 73.3994 22.9531V38H63.79ZM119.537 38.5625C111.147 38.5625 106.037 33.4766 106.037 25.0625V25.0391C106.037 16.625 111.147 11.5625 119.233 11.5625C127.295 11.5625 132.452 16.625 132.452 24.5V27.2188H115.412C115.506 30.1953 117.1 31.9531 119.725 31.9531C122.256 31.9531 123.498 30.4297 123.756 29.6797L123.78 29.6094H132.334L132.264 29.9141C131.491 33.2891 128.537 38.5625 119.537 38.5625ZM119.491 18.1719C117.405 18.1719 115.952 19.4844 115.53 21.7812H123.452C123.03 19.4844 121.577 18.1719 119.491 18.1719ZM134.058 38V4.17969H143.668V38H134.058ZM150.759 9.80469C148.064 9.80469 146.001 7.71875 146.001 5.23438C146.001 2.75 148.064 0.664062 150.759 0.664062C153.454 0.664062 155.517 2.75 155.517 5.23438C155.517 7.71875 153.454 9.80469 150.759 9.80469ZM145.954 38V12.125H155.564V38H145.954ZM157.733 38V12.125H167.342V16.9297H167.53C168.796 13.4375 171.444 11.5625 175.358 11.5625C181.053 11.5625 184.241 15.1719 184.241 21.3828V38H174.632V23.4922C174.632 20.8906 173.413 19.2969 170.999 19.2969C168.725 19.2969 167.342 21.0547 167.342 23.4688V38H157.733ZM199.137 38.5625C190.746 38.5625 185.637 33.4766 185.637 25.0625V25.0391C185.637 16.625 190.746 11.5625 198.832 11.5625C206.895 11.5625 212.051 16.625 212.051 24.5V27.2188H195.012C195.106 30.1953 196.699 31.9531 199.324 31.9531C201.856 31.9531 203.098 30.4297 203.356 29.6797L203.379 29.6094H211.934L211.863 29.9141C211.09 33.2891 208.137 38.5625 199.137 38.5625ZM199.09 18.1719C197.004 18.1719 195.551 19.4844 195.129 21.7812H203.051C202.629 19.4844 201.176 18.1719 199.09 18.1719ZM237.976 38.6094C227.499 38.6094 220.96 31.9062 220.96 21.1016V21.0547C220.96 10.2734 227.546 3.57031 237.976 3.57031C248.476 3.57031 255.038 10.2969 255.038 21.0547V21.1016C255.038 31.8828 248.499 38.6094 237.976 38.6094ZM237.976 30.5C242.265 30.5 244.913 26.8672 244.913 21.1016V21.0547C244.913 15.2422 242.194 11.6797 237.976 11.6797C233.827 11.6797 231.085 15.2188 231.085 21.0547V21.1016C231.085 26.9375 233.804 30.5 237.976 30.5ZM259.247 38V19.0625H255.825V12.125H259.247V11.1172C259.247 5.96094 261.754 3.61719 269.114 3.61719C270.731 3.61719 272.559 3.80469 273.543 4.01562V9.75781C273.098 9.66406 272.418 9.61719 271.786 9.61719C269.489 9.61719 268.575 10.4141 268.575 11.5859V12.125H273.543V19.0625H268.856V38H259.247ZM0.452499 95V61.1797H10.39V95H0.452499ZM13.0984 95V69.125H22.7078V73.9297H22.8953C24.1609 70.4375 26.8094 68.5625 30.7234 68.5625C36.4187 68.5625 39.6062 72.1719 39.6062 78.3828V95H29.9969V80.4922C29.9969 77.8906 28.7781 76.2969 26.3641 76.2969C24.0906 76.2969 22.7078 78.0547 22.7078 80.4688V95H13.0984ZM51.1037 95.5625C44.6819 95.5625 41.0022 90.6875 41.0022 82.0625V82.0391C41.0022 73.3672 44.635 68.5625 51.1506 68.5625C54.8537 68.5625 57.6194 70.5078 58.8381 73.7891H59.0256V61.1797H68.635V95H59.0256V90.5703H58.8381C57.6662 93.6875 54.8537 95.5625 51.1037 95.5625ZM54.8772 87.8281C57.4084 87.8281 59.0256 85.6953 59.0256 82.0859V82.0625C59.0256 78.4297 57.385 76.2969 54.8772 76.2969C52.3928 76.2969 50.7522 78.4297 50.7522 82.0391V82.0625C50.7522 85.625 52.3694 87.8281 54.8772 87.8281ZM83.6716 95.5625C75.2809 95.5625 70.1716 90.4766 70.1716 82.0625V82.0391C70.1716 73.625 75.2809 68.5625 83.3669 68.5625C91.4294 68.5625 96.5856 73.625 96.5856 81.5V84.2188H79.5466C79.6403 87.1953 81.2341 88.9531 83.8591 88.9531C86.3903 88.9531 87.6325 87.4297 87.8903 86.6797L87.9137 86.6094H96.4684L96.3981 86.9141C95.6247 90.2891 92.6716 95.5625 83.6716 95.5625ZM83.6247 75.1719C81.5387 75.1719 80.0856 76.4844 79.6637 78.7812H87.5856C87.1637 76.4844 85.7106 75.1719 83.6247 75.1719ZM96.2941 95L103.747 82.1562L96.2706 69.125H107.146L110.31 76.9766H110.497L113.638 69.125H123.974L116.497 81.9688L123.974 95H113.614L109.911 86.8672H109.724L106.161 95H96.2941ZM140.125 95L131.406 61.1797H141.672L145.562 81.875H145.75L150.555 61.1797H158.711L163.516 81.875H163.703L167.594 61.1797H177.859L169.141 95H159.297L154.727 76.7891H154.539L149.969 95H140.125ZM183.943 95.3281C178.716 95.3281 175.154 91.9531 175.154 87.5V87.4766C175.154 82.4844 178.997 79.7422 185.888 79.2734L191.326 78.9219V77.8672C191.326 76.3672 190.365 75.4297 188.396 75.4297C186.427 75.4297 185.326 76.2969 185.115 77.3516L185.068 77.5859H176.49L176.513 77.2812C176.912 72.0078 181.388 68.5625 188.935 68.5625C196.13 68.5625 200.935 72.1484 200.935 77.3984V95H191.326V91.4844H191.138C189.685 93.9453 187.271 95.3281 183.943 95.3281ZM184.529 86.7969C184.529 88.1562 185.677 88.8828 187.458 88.8828C189.755 88.8828 191.326 87.6172 191.326 85.9062V84.2656L187.482 84.5469C185.443 84.6875 184.529 85.4844 184.529 86.7734V86.7969ZM203.245 95V61.1797H212.854V95H203.245ZM215.258 95V61.1797H224.867V95H215.258ZM239.998 95.5625C231.607 95.5625 226.498 90.4766 226.498 82.0625V82.0391C226.498 73.625 231.607 68.5625 239.693 68.5625C247.756 68.5625 252.912 73.625 252.912 81.5V84.2188H235.873C235.967 87.1953 237.56 88.9531 240.185 88.9531C242.717 88.9531 243.959 87.4297 244.217 86.6797L244.24 86.6094H252.795L252.724 86.9141C251.951 90.2891 248.998 95.5625 239.998 95.5625ZM239.951 75.1719C237.865 75.1719 236.412 76.4844 235.99 78.7812H243.912C243.49 76.4844 242.037 75.1719 239.951 75.1719ZM266.448 95.5625C259.745 95.5625 256.722 93.2656 256.722 87.1719V76.0625H253.3V69.125H256.722V63.4531H266.331V69.125H270.878V76.0625H266.331V85.6953C266.331 87.7812 267.269 88.625 269.238 88.625C269.964 88.625 270.363 88.5781 270.878 88.5078V95.2109C269.847 95.3984 268.488 95.5625 266.448 95.5625ZM284.602 95.5625C276.446 95.5625 272.18 92.0703 271.594 86.9141L271.571 86.7031H280.852L280.899 86.8906C281.274 88.3906 282.446 89.2812 284.602 89.2812C286.454 89.2812 287.602 88.6484 287.602 87.6172V87.5938C287.602 86.6562 286.829 86.1172 284.696 85.7188L280.008 84.8516C274.876 83.9141 272.157 81.1719 272.157 77.1641V77.1406C272.157 71.7734 276.727 68.5625 284.251 68.5625C292.266 68.5625 296.344 72.5469 296.344 77.2578V77.4219H287.626L287.602 77.2109C287.462 75.9922 286.313 74.8438 284.251 74.8438C282.493 74.8438 281.344 75.5 281.344 76.6016V76.625C281.344 77.5391 282.001 78.0547 284.344 78.5L289.032 79.3672C294.61 80.3984 297.118 82.5781 297.118 86.4922V86.5156C297.118 92.0938 292.102 95.5625 284.602 95.5625Z" fill="#0C0A09"/>
</svg>
