<svg width="12" height="20" viewBox="0 0 12 20" fill="none" xmlns="http://www.w3.org/2000/svg">
<path d="M11.5263 7.18325C11.7879 7.18325 12 6.97112 12 6.70959V4.87287C12 4.61133 11.7879 4.39921 11.5263 4.39921H8.3845V1.04865C8.3845 0.726624 8.12296 0.465088 7.80094 0.465088H4.19991C3.87789 0.465088 3.61636 0.726624 3.61636 1.04865V4.39836H0.474514C0.212977 4.39836 0.000852092 4.61048 0.000852092 4.87202V6.70873C0.000852092 6.97027 0.212977 7.1824 0.474514 7.1824H3.61636V9.28917H0.406361C0.182308 9.28917 0 9.47148 0 9.69553V11.6668C0 11.8918 0.182308 12.0732 0.406361 12.0732H3.61551V18.9515C3.61551 19.2736 3.87704 19.5351 4.19906 19.5351H7.80009C8.12211 19.5351 8.38364 19.2736 8.38364 18.9515V12.0732H11.5928C11.8168 12.0732 11.9992 11.8909 11.9992 11.6668V9.69553C11.9992 9.47063 11.8168 9.28917 11.5928 9.28917H8.38364V7.1824H11.5263V7.18325Z" fill="#8A8A8E"/>
</svg>
