<svg width="160" height="45" viewBox="0 0 160 45" fill="none" xmlns="http://www.w3.org/2000/svg">
<path d="M159.191 22.2935C159.191 12.1838 159.191 7.12894 156.202 3.91331C155.939 3.63059 155.662 3.36168 155.371 3.10767C152.065 0.218531 147.013 0.373651 136.908 0.683891L10.8276 4.55477C5.7097 4.7119 3.15077 4.79046 1.57491 6.41545C-0.000961304 8.04044 -0.000961304 10.6006 -0.000961304 15.7209V28.3133C-0.000961304 33.413 -0.000961304 35.9629 1.56639 37.5862C3.13374 39.2095 5.68205 39.2989 10.7787 39.4777L136.813 43.9C146.957 44.2559 152.029 44.4339 155.351 41.5438C155.643 41.2898 155.922 41.0207 156.186 40.7378C159.191 37.5186 159.191 32.4436 159.191 22.2935Z" fill="#049952"/>
</svg>
