<svg width="160" height="45" viewBox="0 0 160 45" fill="none" xmlns="http://www.w3.org/2000/svg">
<path d="M0.189941 22.2935C0.189941 12.1838 0.189941 7.12894 3.17917 3.91331C3.44198 3.63059 3.71927 3.36168 4.00992 3.10767C7.31577 0.218531 12.3682 0.373651 22.4732 0.683891L148.553 4.55477C153.671 4.7119 156.23 4.79046 157.806 6.41545C159.382 8.04044 159.382 10.6006 159.382 15.7209V28.3133C159.382 33.413 159.382 35.9629 157.814 37.5862C156.247 39.2095 153.699 39.2989 148.602 39.4777L22.5678 43.9C12.424 44.2559 7.35211 44.4339 4.02956 41.5438C3.73752 41.2898 3.45888 41.0207 3.19477 40.7378C0.189941 37.5186 0.189941 32.4436 0.189941 22.2935Z" fill="#049952"/>
</svg>
