<svg width="160" height="45" viewBox="0 0 160 45" fill="none" xmlns="http://www.w3.org/2000/svg">
<path d="M0.189941 22.6644C0.189941 12.5546 0.189941 7.49979 3.17917 4.28416C3.44198 4.00144 3.71927 3.73253 4.00992 3.47852C7.31577 0.589381 12.3682 0.744501 22.4732 1.05474L148.553 4.92562C153.671 5.08275 156.23 5.16131 157.806 6.7863C159.382 8.41129 159.382 10.9714 159.382 16.0917V28.6841C159.382 33.7839 159.382 36.3337 157.814 37.957C156.247 39.5804 153.699 39.6698 148.602 39.8486L22.5678 44.2709C12.424 44.6268 7.35211 44.8047 4.02956 41.9146C3.73752 41.6606 3.45888 41.3916 3.19477 41.1086C0.189941 37.8895 0.189941 32.8144 0.189941 22.6644Z" fill="#815AED"/>
</svg>
