<svg width="160" height="45" viewBox="0 0 160 45" fill="none" xmlns="http://www.w3.org/2000/svg">
<path d="M159.191 22.6644C159.191 12.5546 159.191 7.49979 156.202 4.28416C155.939 4.00144 155.662 3.73253 155.371 3.47852C152.065 0.589381 147.013 0.744501 136.908 1.05474L10.8276 4.92562C5.7097 5.08275 3.15077 5.16131 1.57491 6.7863C-0.000961304 8.41129 -0.000961304 10.9714 -0.000961304 16.0917V28.6841C-0.000961304 33.7839 -0.000961304 36.3337 1.56639 37.957C3.13374 39.5804 5.68205 39.6698 10.7787 39.8486L136.813 44.2709C146.957 44.6268 152.029 44.8047 155.351 41.9146C155.643 41.6606 155.922 41.3916 156.186 41.1086C159.191 37.8895 159.191 32.8144 159.191 22.6644Z" fill="#815AED"/>
</svg>
