<svg width="8" height="44" viewBox="0 0 8 44" fill="none" xmlns="http://www.w3.org/2000/svg">
<path d="M1.33333 3C1.33333 4.47276 2.52724 5.66667 4 5.66667C5.47276 5.66667 6.66667 4.47276 6.66667 3C6.66667 1.52724 5.47276 0.333333 4 0.333333C2.52724 0.333333 1.33333 1.52724 1.33333 3ZM3.64645 43.3536C3.84171 43.5488 4.15829 43.5488 4.35355 43.3536L7.53553 40.1716C7.7308 39.9763 7.7308 39.6597 7.53553 39.4645C7.34027 39.2692 7.02369 39.2692 6.82843 39.4645L4 42.2929L1.17157 39.4645C0.976311 39.2692 0.659728 39.2692 0.464466 39.4645C0.269204 39.6597 0.269204 39.9763 0.464466 40.1716L3.64645 43.3536ZM3.5 3L3.5 5H4.5V3H3.5ZM3.5 9L3.5 13H4.5L4.5 9H3.5ZM3.5 17L3.5 21H4.5V17H3.5ZM3.5 25L3.5 29H4.5L4.5 25H3.5ZM3.5 33L3.5 37H4.5L4.5 33H3.5ZM3.5 41V43H4.5V41H3.5Z" fill="#0C0A09"/>
</svg>
