<svg width="41" height="32" viewBox="0 0 41 32" fill="none" xmlns="http://www.w3.org/2000/svg">
<path fill-rule="evenodd" clip-rule="evenodd" d="M20.2 0.00195312C21.91 0.00195312 23.6639 0.0459533 25.364 0.117953L27.372 0.213953L29.294 0.327953L31.094 0.449953L32.7379 0.577953C34.5223 0.713736 36.2015 1.47482 37.4799 2.72716C38.7582 3.97949 39.5536 5.64274 39.726 7.42395L39.806 8.27395L39.956 10.094C40.096 11.98 40.2 14.036 40.2 16.002C40.2 17.968 40.096 20.024 39.956 21.91L39.806 23.73L39.726 24.58C39.5535 26.3615 38.7578 28.025 37.4791 29.2774C36.2004 30.5297 34.5207 31.2906 32.736 31.426L31.096 31.552L29.296 31.676L27.372 31.79L25.364 31.886C23.6436 31.9605 21.9219 31.9991 20.2 32.002C18.478 31.9991 16.7563 31.9605 15.036 31.886L13.028 31.79L11.106 31.676L9.30595 31.552L7.66195 31.426C5.87758 31.2902 4.19835 30.5291 2.92004 29.2767C1.64173 28.0244 0.846333 26.3612 0.673951 24.58L0.593951 23.73L0.443951 21.91C0.291617 19.9442 0.21023 17.9736 0.199951 16.002C0.199951 14.036 0.303951 11.98 0.443951 10.094L0.593951 8.27395L0.673951 7.42395C0.846266 5.64306 1.64137 3.98006 2.91928 2.72776C4.19718 1.47547 5.87593 0.714186 7.65995 0.577953L9.30195 0.449953L11.102 0.327953L13.026 0.213953L15.034 0.117953C16.755 0.0434075 18.4773 0.00473229 20.2 0.00195312ZM16.2 11.152V20.852C16.2 21.776 17.2 22.352 18 21.892L26.4 17.042C26.5827 16.9367 26.7346 16.7852 26.8401 16.6026C26.9457 16.42 27.0013 16.2129 27.0013 16.002C27.0013 15.791 26.9457 15.5839 26.8401 15.4013C26.7346 15.2187 26.5827 15.0672 26.4 14.962L18 10.114C17.8175 10.0086 17.6105 9.95315 17.3998 9.95318C17.1891 9.95322 16.9821 10.0087 16.7996 10.1141C16.6172 10.2196 16.4657 10.3712 16.3604 10.5537C16.2552 10.7362 16.1998 10.9432 16.2 11.154V11.152Z" fill="black"/>
</svg>
